<svg width="61" height="76" viewBox="0 0 61 76" fill="none" xmlns="http://www.w3.org/2000/svg">
<g id="Layer_1" clip-path="url(#clip0_4875_609)">
<path id="Vector" d="M60.9998 51.6369C60.9998 59.1718 58.2815 63.6792 52.9253 68.1952C47.6748 72.6145 39.543 74.056 31.9468 74.056C28.0109 74.056 24.3428 73.4395 20.9346 72.2067C20.6989 72.1263 20.4641 72.0382 20.2371 71.9502C19.9771 71.8458 19.7181 71.7415 19.4581 71.6295C19.2068 71.5252 18.9633 71.4132 18.7111 71.2936L18.4355 71.6535L16.504 74.1919L15.3602 75.6889C14.9867 76.1934 14.1999 76.0574 14.0126 75.4649L13.6634 74.1919L7.97443 53.11C7.85316 52.6372 8.20144 52.1816 8.69719 52.1576L18.419 51.9337L32.1263 51.6216C32.751 51.6216 33.1168 52.3347 32.7345 52.8382L28.2544 58.7315C28.5464 58.788 28.8307 58.8435 29.1392 58.8914H29.1469C29.3584 58.923 29.5767 58.9555 29.796 58.9794C29.8852 58.9871 29.9745 59.0034 30.0715 59.0034C33.6989 59.3882 37.692 58.3305 39.4936 54.9201C40.4676 53.0784 40.5161 50.74 39.4451 48.9473C37.27 45.3119 31.8245 43.6072 28.1729 42.1656C24.8016 40.8352 21.9902 39.5047 20.6708 38.6241C20.2856 38.3676 20.0576 37.9368 20.0576 37.4774V36.9605C20.0576 30.131 21.5914 25.2867 24.627 22.5559C25.1315 22.1003 25.6845 21.6973 26.285 21.348C27.0902 20.8809 28.1147 21.1355 28.6347 21.9012C31.1445 25.593 39.4121 29.9071 41.7424 30.8106C46.6193 32.7001 52.0162 34.8145 55.8959 38.425C56.3179 38.8098 56.7079 39.2175 57.0649 39.6578C59.6785 42.9084 61.0008 46.9362 61.0008 51.636L60.9998 51.6369Z" fill="#FFF9F2"/>
<path id="Vector_2" d="M59.6321 24.8531C59.7049 25.3413 59.2916 25.7663 58.7958 25.7261L36.3 23.5638C35.6588 23.5074 35.3667 22.7474 35.813 22.2831L39.7654 18.1835C40.0574 17.8552 40.0089 17.3671 39.6926 17.1029L39.7169 17.0789C30.4384 12.4979 19.5252 19.1005 17.2182 28.5C16.5177 31.3543 16.2306 34.2718 16.2306 37.2084V38.2412C16.2228 38.2651 16.2228 38.2977 16.2228 38.3216C16.2063 40.2436 16.1656 42.1733 16.1743 43.8302C16.1821 44.9989 16.1908 46.7524 16.1986 48.2342C16.2063 48.6505 15.8658 48.9865 15.4515 48.9951L5.47746 49.2277L4.38992 49.2516C3.89514 49.2756 3.53813 49.7321 3.67589 50.2127L3.95141 51.2378L9.52685 71.8793C9.65685 72.3675 9.29111 72.8404 8.77984 72.8404H1.45134C0.649999 72.8404 0 72.1991 0 71.4084V3.04383C0 2.23406 0.665522 1.57743 1.48627 1.57743C1.48627 1.57743 14.5328 1.57743 14.5503 1.57743C16.1336 1.57743 16.1927 3.05532 16.2936 4.21159C16.3111 4.41355 16.3412 4.63945 16.5032 4.76388C16.7467 4.95053 17.095 4.78589 17.353 4.6203C19.8793 2.99788 22.2106 1.60327 25.1724 0.899748C28.2294 0.173249 31.4056 0.00765743 34.5392 0H34.5877C40.558 0 45.6969 2.3068 50.6039 5.44731C50.893 5.63204 51.2219 5.82539 51.5605 5.75935C51.8699 5.69904 52.0921 5.43773 52.2861 5.19174C53.1932 4.04217 53.9461 2.63703 54.9579 1.58413C55.4042 1.1199 56.192 1.36781 56.2812 2.0005L59.6331 24.8522L59.6321 24.8531Z" fill="#FFF9F2"/>
</g>
<defs>
<clipPath id="clip0_4875_609">
<rect width="61" height="76" fill="white"/>
</clipPath>
</defs>
</svg>
