<svg width="31" height="39" viewBox="0 0 31 39" fill="none" xmlns="http://www.w3.org/2000/svg">
<g id="Layer_1" clip-path="url(#clip0_4875_640)">
<path id="Vector" d="M30.3533 26.4979C30.3533 30.3645 29.0007 32.6775 26.3355 34.9949C23.7229 37.2627 19.6765 38.0024 15.8967 38.0024C13.9382 38.0024 12.1129 37.6861 10.4171 37.0534C10.2998 37.0122 10.1829 36.967 10.07 36.9218C9.9406 36.8683 9.81171 36.8147 9.68233 36.7573C9.55731 36.7037 9.43614 36.6462 9.31062 36.5849L9.17353 36.7695L8.21239 38.0722L7.64324 38.8404C7.45738 39.0992 7.06588 39.0295 6.97271 38.7254L6.79892 38.0722L3.96813 27.2538C3.90779 27.0112 4.08109 26.7774 4.32777 26.7651L9.16532 26.6502L15.986 26.49C16.2969 26.49 16.4788 26.856 16.2886 27.1143L14.0593 30.1386C14.2047 30.1675 14.3461 30.196 14.4996 30.2206H14.5035C14.6087 30.2368 14.7173 30.2535 14.8264 30.2658C14.8708 30.2697 14.9152 30.2781 14.9635 30.2781C16.7685 30.4755 18.7555 29.9327 19.6519 28.1827C20.1366 27.2376 20.1607 26.0377 19.6278 25.1177C18.5455 23.2522 15.8358 22.3774 14.0188 21.6376C12.3413 20.9549 10.9423 20.2721 10.2858 19.8203C10.0941 19.6886 9.98067 19.4676 9.98067 19.2318V18.9666C9.98067 15.462 10.7439 12.9761 12.2544 11.5747C12.5054 11.3409 12.7806 11.1342 13.0794 10.9549C13.4801 10.7152 13.9898 10.8458 14.2486 11.2388C15.4974 13.1333 19.6114 15.347 20.7709 15.8107C23.1976 16.7803 25.8831 17.8653 27.8136 19.7181C28.0236 19.9155 28.2177 20.1248 28.3953 20.3507C29.6958 22.0188 30.3538 24.0857 30.3538 26.4974L30.3533 26.4979Z" fill="#31A050"/>
<path id="Vector_2" d="M29.6726 12.7536C29.7089 13.0041 29.5032 13.2222 29.2565 13.2015L18.0627 12.092C17.7436 12.063 17.5983 11.673 17.8204 11.4348L19.7871 9.33102C19.9324 9.16254 19.9082 8.91204 19.7509 8.77647L19.7629 8.76419C15.146 6.41339 9.71565 9.80157 8.56769 14.625C8.21915 16.0897 8.07626 17.5868 8.07626 19.0938V19.6238C8.0724 19.6361 8.0724 19.6528 8.0724 19.665C8.06419 20.6513 8.04391 21.6416 8.04826 22.4918C8.05212 23.0915 8.05647 23.9914 8.06033 24.7517C8.06419 24.9654 7.89475 25.1378 7.68862 25.1422L2.72556 25.2616L2.1844 25.2739C1.93821 25.2861 1.76056 25.5204 1.82911 25.767L1.9662 26.2931L4.74052 36.8855C4.8052 37.136 4.62321 37.3786 4.36881 37.3786H0.722181C0.323437 37.3786 0 37.0495 0 36.6438V1.56196C0 1.14642 0.33116 0.809471 0.739559 0.809471C0.739559 0.809471 7.23146 0.809471 7.24015 0.809471C8.02798 0.809471 8.05743 1.56786 8.10764 2.16121C8.11633 2.26485 8.13129 2.38077 8.21191 2.44462C8.33308 2.5404 8.50638 2.45592 8.63479 2.37094C9.89185 1.53839 11.0519 0.822733 12.5257 0.461713C14.0468 0.0889043 15.6273 0.00392947 17.1865 0H17.2107C20.1815 0 22.7386 1.18375 25.1803 2.79533C25.3241 2.89013 25.4878 2.98935 25.6562 2.95545C25.8102 2.92451 25.9208 2.79042 26.0173 2.66418C26.4687 2.07427 26.8433 1.35321 27.3468 0.812909C27.5689 0.574685 27.9608 0.701902 28.0053 1.02657L29.6731 12.7531L29.6726 12.7536Z" fill="#31A050"/>
</g>
<defs>
<clipPath id="clip0_4875_640">
<rect width="30.1059" height="38.6822" fill="white" transform="scale(1.00822)"/>
</clipPath>
</defs>
</svg>
