<svg width="77" height="27" viewBox="0 0 77 27" fill="none" xmlns="http://www.w3.org/2000/svg">
<g id="wap">
<path id="Vector" d="M61.5603 26.3959H55.0745C55.2327 24.9929 55.3276 23.3615 55.3276 21.6322V5.70987C55.3276 3.58906 55.2643 2.25132 55.0745 0.587299H61.3072V1.69665C61.3072 1.89241 61.2756 2.15344 61.2756 2.31657C63.1739 0.685183 65.1355 0 67.7614 0C70.5456 0 72.8236 0.848322 74.4688 2.51234C76.1456 4.24162 76.9998 6.81921 76.9998 10.1146C76.9998 13.4427 76.0507 16.1508 74.2473 18.0106C72.6337 19.6746 70.3241 20.5882 67.7298 20.5882C66.2428 20.5882 64.6293 20.2619 63.4586 19.7398C62.636 19.3809 62.1615 19.022 61.2756 18.239C61.2756 18.5326 61.2756 18.9568 61.3072 19.4136V21.6649C61.3072 23.492 61.3705 24.9929 61.5603 26.3959ZM66.3377 15.6614C67.54 15.6614 68.6157 15.2372 69.4383 14.4215C70.3241 13.5405 70.8304 12.0397 70.8304 10.1799C70.8304 6.85184 69.1219 4.9268 66.1479 4.9268C63.5219 4.9268 61.3705 7.30863 61.3705 10.2778C61.3705 13.3448 63.4903 15.6614 66.3377 15.6614Z" fill="#31A050"/>
<path id="Vector_2" d="M44.6291 7.60228V6.85184C44.6291 5.28571 43.7116 4.5679 41.6235 4.5679C39.5986 4.5679 38.5229 5.25308 38.0483 6.85184L32.0054 5.84038C32.6382 3.91534 33.3342 2.87125 34.663 1.89241C36.3715 0.652557 38.7127 0.032628 41.7817 0.032628C44.1229 0.032628 46.4009 0.489418 47.6347 1.1746C49.6596 2.31658 50.5455 4.11111 50.5455 7.04761V15.8571C50.5455 17.8474 50.6087 19.022 50.7669 20.4903H44.6291V18.9894C42.8574 20.3924 41.0856 20.9471 38.4913 20.9471C36.0868 20.9471 34.2834 20.3598 33.0178 19.1525C31.8789 18.0758 31.2777 16.5097 31.2777 14.7151C31.2777 12.6596 32.0687 11.0282 33.5873 9.95149C35.2009 8.77688 37.3207 8.0917 40.1681 7.83068C41.402 7.70017 42.3511 7.66754 44.6291 7.60228ZM44.6291 12.6922V11.7786C41.8133 11.8439 40.4528 12.007 39.1557 12.4312C38.0167 12.8227 37.3207 13.6384 37.3207 14.5846C37.3207 15.7592 38.2698 16.4444 39.915 16.4444C41.2122 16.4444 42.6359 15.955 43.4901 15.2046C44.2178 14.552 44.6291 13.6711 44.6291 12.6922Z" fill="#31A050"/>
<path id="Vector_3" d="M23.2225 20.4903H17.844C17.6858 19.5441 17.4327 18.5652 16.8632 16.6728L14.9333 10.1473C14.7751 9.59258 14.6485 9.16842 14.5853 8.87477C14.3638 9.62521 14.3638 9.69046 14.2056 10.1473L12.2757 16.6728C11.8327 18.1084 11.4214 19.7072 11.2949 20.4903H5.91636C5.6949 19.3157 5.47343 18.4347 4.96721 16.6728L1.42372 4.82892C1.0757 3.68694 0.601128 2.25132 0 0.587298H6.80224C6.86551 1.72927 7.05534 2.90387 7.40336 4.43738L8.76381 10.2778C8.922 11.0608 9.04856 11.5829 9.08019 11.8439C9.45986 10.5714 9.45986 10.5714 9.52313 10.2778L11.2949 4.3395C12.1491 1.27248 12.1491 1.27248 12.2757 0.587298H16.8949C16.9898 1.23986 17.3694 2.80599 17.844 4.3395L19.679 10.5062C19.7423 10.7346 19.9321 11.4524 20.0587 11.8439C20.1536 11.3545 20.1536 11.3545 20.3434 10.4735L21.6722 4.69841C22.0519 3.00176 22.2734 1.63139 22.3366 0.587298H29.1389C28.6643 1.82716 28.1897 3.29541 27.7152 4.82892L24.1717 16.6728C23.6022 18.5652 23.4124 19.3809 23.2225 20.4903Z" fill="#31A050"/>
</g>
</svg>
