<svg width="77" height="27" viewBox="0 0 77 27" fill="none" xmlns="http://www.w3.org/2000/svg">
<g id="wap">
<path id="Vector" d="M61.5605 26.3958H55.0747C55.2329 24.9928 55.3278 23.3614 55.3278 21.6322V5.70985C55.3278 3.58905 55.2645 2.25131 55.0747 0.587297H61.3074V1.69664C61.3074 1.89241 61.2758 2.15343 61.2758 2.31657C63.1741 0.685181 65.1357 0 67.7616 0C70.5458 0 72.8237 0.84832 74.4689 2.51233C76.1457 4.2416 77 6.81919 77 10.1146C77 13.4426 76.0508 16.1507 74.2475 18.0105C72.6339 19.6745 70.3243 20.5881 67.73 20.5881C66.243 20.5881 64.6294 20.2618 63.4588 19.7398C62.6362 19.3809 62.1617 19.022 61.2758 18.2389C61.2758 18.5325 61.2758 18.9567 61.3074 19.4135V21.6648C61.3074 23.492 61.3707 24.9928 61.5605 26.3958ZM66.3379 15.6613C67.5402 15.6613 68.6159 15.2371 69.4384 14.4215C70.3243 13.5405 70.8305 12.0396 70.8305 10.1798C70.8305 6.85182 69.1221 4.92679 66.1481 4.92679C63.5221 4.92679 61.3707 7.30861 61.3707 10.2777C61.3707 13.3447 63.4905 15.6613 66.3379 15.6613Z" fill="#31A050"/>
<path id="Vector_2" d="M44.6287 7.60226V6.85182C44.6287 5.28569 43.7112 4.56788 41.6231 4.56788C39.5982 4.56788 38.5225 5.25307 38.0479 6.85182L32.005 5.84037C32.6378 3.91533 33.3338 2.87124 34.6627 1.89241C36.3711 0.652557 38.7123 0.0326308 41.7812 0.0326308C44.1225 0.0326308 46.4004 0.489419 47.6343 1.1746C49.6592 2.31657 50.545 4.11109 50.545 7.04759V15.8571C50.545 17.8474 50.6083 19.022 50.7665 20.4902H44.6287V18.9893C42.8569 20.3923 41.0852 20.947 38.4909 20.947C36.0864 20.947 34.283 20.3597 33.0175 19.1525C31.8785 18.0758 31.2774 16.5096 31.2774 14.7151C31.2774 12.6596 32.0683 11.0282 33.587 9.95146C35.2005 8.77686 37.3203 8.09168 40.1677 7.83066C41.4016 7.70015 42.3507 7.66752 44.6287 7.60226ZM44.6287 12.6922V11.7786C41.8129 11.8439 40.4524 12.007 39.1553 12.4312C38.0163 12.8227 37.3203 13.6384 37.3203 14.5846C37.3203 15.7592 38.2694 16.4444 39.9146 16.4444C41.2118 16.4444 42.6355 15.955 43.4897 15.2045C44.2174 14.552 44.6287 13.671 44.6287 12.6922Z" fill="#31A050"/>
<path id="Vector_3" d="M23.2224 20.4902H17.844C17.6858 19.544 17.4327 18.5652 16.8632 16.6728L14.9332 10.1472C14.775 9.59255 14.6485 9.16839 14.5852 8.87474C14.3637 9.62518 14.3637 9.69043 14.2056 10.1472L12.2756 16.6728C11.8327 18.1084 11.4214 19.7071 11.2948 20.4902H5.91635C5.69488 19.3156 5.47341 18.4347 4.9672 16.6728L1.42372 4.8289C1.0757 3.68693 0.601126 2.25131 0 0.587297H6.80222C6.86549 1.72927 7.05532 2.90387 7.40334 4.43737L8.76378 10.2777C8.92198 11.0608 9.04853 11.5828 9.08017 11.8439C9.45983 10.5714 9.45983 10.5714 9.5231 10.2777L11.2948 4.33949C12.1491 1.27248 12.1491 1.27248 12.2756 0.587297H16.8948C16.9897 1.23985 17.3694 2.80598 17.844 4.33949L19.679 10.5061C19.7422 10.7345 19.9321 11.4523 20.0586 11.8439C20.1535 11.3544 20.1535 11.3544 20.3434 10.4735L21.6722 4.69839C22.0518 3.00175 22.2733 1.63138 22.3366 0.587297H29.1388C28.6642 1.82715 28.1896 3.2954 27.7151 4.8289L24.1716 16.6728C23.6021 18.5652 23.4123 19.3809 23.2224 20.4902Z" fill="#31A050"/>
</g>
</svg>
