<svg width="70" height="96" viewBox="0 0 70 96" fill="none" xmlns="http://www.w3.org/2000/svg">
<path id="Vector 17" d="M47.6496 5.36646C-7.70071 13.7143 -3.57231 49.8882 5.1972 64.9938C16.199 44.482 35.6912 28.6211 44.0621 23.2547C43.911 23.9326 43.7693 24.5303 43.6345 25.0631C42.7083 28.7221 40.2401 31.7235 37.6016 34.4286C19.2166 53.277 11.8985 70.6301 5.1972 82.882C-0.542849 93.3764 7.58889 96 12.3723 96C11.8939 82.1665 14.166 79.5031 15.3619 79.9006C19.4063 80.3284 27.8026 80.6539 34.6536 80.4367C39.3177 80.2889 43.9052 78.9958 47.7432 76.3488C74.3322 58.0112 71.8097 18.5657 66.7831 0C60.0864 4.29317 56.8748 3.97514 47.6496 5.36646Z" fill="#FFF9F2"/>
</svg>
