<svg width="61" height="76" viewBox="0 0 61 76" fill="none" xmlns="http://www.w3.org/2000/svg">
<g id="Layer_1" clip-path="url(#clip0_4737_23538)">
<path id="Vector" d="M61 51.6372C61 59.1721 58.2816 63.6794 52.9254 68.1954C47.675 72.6147 39.5432 74.0562 31.947 74.0562C28.0111 74.0562 24.3429 73.4398 20.9348 72.2069C20.6991 72.1265 20.4643 72.0385 20.2373 71.9504C19.9773 71.8461 19.7183 71.7418 19.4583 71.6298C19.207 71.5254 18.9635 71.4134 18.7112 71.2938L18.4357 71.6537L16.5042 74.1921L15.3603 75.6892C14.9868 76.1936 14.2001 76.0577 14.0128 75.4652L13.6636 74.1921L7.97461 53.1103C7.85334 52.6374 8.20163 52.1818 8.69737 52.1579L18.4192 51.9339L32.1264 51.6219C32.7512 51.6219 33.117 52.335 32.7347 52.8384L28.2546 58.7318C28.5466 58.7883 28.8309 58.8438 29.1394 58.8916H29.1471C29.3586 58.9232 29.5769 58.9558 29.7962 58.9797C29.8854 58.9873 29.9747 59.0036 30.0717 59.0036C33.6991 59.3884 37.6922 58.3307 39.4938 54.9203C40.4678 53.0787 40.5163 50.7403 39.4452 48.9475C37.2702 45.3121 31.8247 43.6074 28.1731 42.1659C24.8018 40.8354 21.9903 39.5049 20.6709 38.6243C20.2858 38.3678 20.0578 37.9371 20.0578 37.4776V36.9607C20.0578 30.1313 21.5916 25.287 24.6272 22.5562C25.1317 22.1005 25.6847 21.6976 26.2852 21.3482C27.0904 20.8811 28.1149 21.1357 28.6349 21.9015C31.1447 25.5933 39.4123 29.9073 41.7426 30.8109C46.6195 32.7003 52.0164 34.8148 55.896 38.4252C56.3181 38.81 56.7081 39.2178 57.0651 39.6581C59.6787 42.9087 61.001 46.9365 61.001 51.6362L61 51.6372Z" fill="#FFF9F2"/>
<path id="Vector_2" d="M59.6321 24.8531C59.7049 25.3413 59.2916 25.7663 58.7958 25.7261L36.3 23.5638C35.6588 23.5074 35.3667 22.7474 35.813 22.2831L39.7654 18.1835C40.0574 17.8552 40.0089 17.3671 39.6926 17.1029L39.7169 17.0789C30.4384 12.4979 19.5252 19.1005 17.2182 28.5C16.5177 31.3543 16.2306 34.2718 16.2306 37.2084V38.2412C16.2228 38.2651 16.2228 38.2977 16.2228 38.3216C16.2063 40.2436 16.1656 42.1733 16.1743 43.8302C16.1821 44.9989 16.1908 46.7524 16.1986 48.2342C16.2063 48.6505 15.8658 48.9865 15.4515 48.9951L5.47746 49.2277L4.38992 49.2516C3.89514 49.2756 3.53813 49.7321 3.67589 50.2127L3.95141 51.2378L9.52685 71.8793C9.65685 72.3675 9.29111 72.8404 8.77984 72.8404H1.45134C0.649999 72.8404 0 72.1991 0 71.4084V3.04383C0 2.23406 0.665522 1.57743 1.48627 1.57743C1.48627 1.57743 14.5328 1.57743 14.5503 1.57743C16.1336 1.57743 16.1927 3.05532 16.2936 4.21159C16.3111 4.41355 16.3412 4.63945 16.5032 4.76388C16.7467 4.95053 17.095 4.78589 17.353 4.6203C19.8793 2.99788 22.2106 1.60327 25.1724 0.899748C28.2294 0.173249 31.4056 0.00765743 34.5392 0H34.5877C40.558 0 45.6969 2.3068 50.6039 5.44731C50.893 5.63204 51.2219 5.82539 51.5605 5.75935C51.8699 5.69904 52.0921 5.43773 52.2861 5.19174C53.1932 4.04217 53.9461 2.63703 54.9579 1.58413C55.4042 1.1199 56.192 1.36781 56.2812 2.0005L59.6331 24.8522L59.6321 24.8531Z" fill="#FFF9F2"/>
</g>
<defs>
<clipPath id="clip0_4737_23538">
<rect width="61" height="76" fill="white"/>
</clipPath>
</defs>
</svg>
