<svg width="46" height="28" viewBox="0 0 46 28" fill="none" xmlns="http://www.w3.org/2000/svg">
<g id="Re">
<path id="Vector" d="M45.8709 19.1013H31.6475C31.9636 21.7416 33.4491 23.1432 35.9461 23.1432C37.2104 23.1432 38.3167 22.7194 39.1385 21.9371C39.6126 21.4808 39.8339 21.1222 40.0867 20.2747L45.5864 21.8719C44.8594 23.5669 44.3853 24.3167 43.5003 25.2293C41.6987 27.0547 39.1701 28 36.041 28C32.9434 28 30.5096 27.0873 28.708 25.2293C26.8432 23.2736 25.8317 20.5029 25.8317 17.2759C25.8317 10.8219 29.8459 6.5518 35.8829 6.5518C40.8137 6.5518 44.2589 9.32247 45.3652 14.1793C45.618 15.2224 45.7445 16.5914 45.8393 18.4494C45.8393 18.5797 45.8393 18.7753 45.8709 19.1013ZM31.7423 14.603H39.8655C39.4229 12.5169 38.0638 11.4086 35.8829 11.4086C33.6388 11.4086 32.2797 12.4517 31.7423 14.603Z" fill="#31A050"/>
<path id="Vector_2" d="M23.3579 27.2177H15.9618C15.7721 26.1746 15.3929 24.8382 14.413 22.1327C13.4016 19.2969 13.0223 18.5472 12.2321 17.83C11.5683 17.2107 10.7782 16.9499 9.76672 16.9499H6.54275V22.2957C6.54275 24.5122 6.60597 25.7183 6.79561 27.2177H0C0.189645 25.7183 0.25286 24.7404 0.25286 22.3283V4.79162C0.25286 2.77066 0.189645 1.56461 0 0C1.39073 0.0651913 2.56021 0.0977869 4.70952 0.0977869H12.9275C18.0479 0.0977869 21.019 2.83586 21.019 7.52969C21.019 9.84401 20.3868 11.6694 19.1541 12.8754C18.364 13.6251 17.7002 13.9837 16.1514 14.5052C17.7634 15.0268 18.4904 15.7765 19.5018 18.0908C19.9759 19.1339 20.4184 20.2421 21.8408 23.7625C22.1885 24.6752 22.5678 25.4901 23.3579 27.2177ZM6.54275 11.376H11.4735C13.3384 11.376 14.4762 10.2026 14.4762 8.34459C14.4762 6.51921 13.4648 5.57392 11.5051 5.57392H6.54275V11.376Z" fill="#31A050"/>
</g>
</svg>
