<svg width="46" height="28" viewBox="0 0 46 28" fill="none" xmlns="http://www.w3.org/2000/svg">
<g id="Re">
<path id="Vector" d="M45.871 19.1013H31.6476C31.9637 21.7416 33.4492 23.1432 35.9462 23.1432C37.2105 23.1432 38.3168 22.7194 39.1386 21.9371C39.6127 21.4808 39.8339 21.1222 40.0868 20.2747L45.5865 21.8719C44.8595 23.5669 44.3854 24.3167 43.5004 25.2293C41.6988 27.0547 39.1702 28 36.041 28C32.9435 28 30.5097 27.0873 28.7081 25.2293C26.8433 23.2736 25.8318 20.5029 25.8318 17.2759C25.8318 10.8219 29.846 6.5518 35.883 6.5518C40.8138 6.5518 44.259 9.32247 45.3653 14.1793C45.6181 15.2224 45.7445 16.5914 45.8394 18.4494C45.8394 18.5797 45.8394 18.7753 45.871 19.1013ZM31.7424 14.603H39.8655C39.423 12.5169 38.0639 11.4086 35.883 11.4086C33.6389 11.4086 32.2797 12.4517 31.7424 14.603Z" fill="#DF3F42"/>
<path id="Vector_2" d="M23.3579 27.2177H15.9618C15.7721 26.1746 15.3929 24.8382 14.413 22.1327C13.4016 19.2969 13.0223 18.5472 12.2321 17.83C11.5683 17.2107 10.7782 16.9499 9.76672 16.9499H6.54275V22.2957C6.54275 24.5122 6.60597 25.7183 6.79561 27.2177H0C0.189645 25.7183 0.25286 24.7404 0.25286 22.3283V4.79162C0.25286 2.77066 0.189645 1.56461 0 0C1.39073 0.0651913 2.56021 0.0977869 4.70952 0.0977869H12.9275C18.0479 0.0977869 21.019 2.83586 21.019 7.52969C21.019 9.84401 20.3868 11.6694 19.1541 12.8754C18.364 13.6251 17.7002 13.9837 16.1514 14.5052C17.7634 15.0268 18.4904 15.7765 19.5018 18.0908C19.9759 19.1339 20.4184 20.2421 21.8408 23.7625C22.1885 24.6752 22.5678 25.4901 23.3579 27.2177ZM6.54275 11.376H11.4735C13.3384 11.376 14.4762 10.2026 14.4762 8.34459C14.4762 6.51921 13.4648 5.57392 11.5051 5.57392H6.54275V11.376Z" fill="#DF3F42"/>
</g>
</svg>
