<svg width="77" height="27" viewBox="0 0 77 27" fill="none" xmlns="http://www.w3.org/2000/svg">
<g id="wap">
<path id="Vector" d="M61.5604 26.3957H55.0746C55.2328 24.9928 55.3277 23.3614 55.3277 21.6321V5.70983C55.3277 3.58904 55.2644 2.25131 55.0746 0.587295H61.3073V1.69664C61.3073 1.8924 61.2757 2.15342 61.2757 2.31656C63.174 0.685179 65.1355 0 67.7615 0C70.5457 0 72.8236 0.848317 74.4688 2.51233C76.1456 4.24159 76.9998 6.81917 76.9998 10.1146C76.9998 13.4426 76.0507 16.1507 74.2473 18.0104C72.6338 19.6745 70.3242 20.588 67.7299 20.588C66.2429 20.588 64.6293 20.2618 63.4587 19.7397C62.6361 19.3808 62.1616 19.0219 61.2757 18.2388C61.2757 18.5325 61.2757 18.9566 61.3073 19.4134V21.6647C61.3073 23.4919 61.3706 24.9928 61.5604 26.3957ZM66.3378 15.6613C67.54 15.6613 68.6157 15.2371 69.4383 14.4214C70.3242 13.5405 70.8304 12.0396 70.8304 10.1798C70.8304 6.8518 69.1219 4.92677 66.148 4.92677C63.522 4.92677 61.3706 7.30859 61.3706 10.2777C61.3706 13.3447 63.4904 15.6613 66.3378 15.6613Z" fill="#008A73"/>
<path id="Vector_2" d="M44.6283 7.60224V6.8518C44.6283 5.28568 43.7108 4.56787 41.6227 4.56787C39.5979 4.56787 38.5222 5.25305 38.0476 6.8518L32.0047 5.84035C32.6375 3.91532 33.3335 2.87123 34.6623 1.8924C36.3708 0.652555 38.712 0.0326307 41.7809 0.0326307C44.1221 0.0326307 46.4001 0.489417 47.634 1.1746C49.6588 2.31656 50.5447 4.11108 50.5447 7.04757V15.857C50.5447 17.8473 50.6079 19.0219 50.7661 20.4901H44.6283V18.9893C42.8566 20.3923 41.0849 20.9469 38.4905 20.9469C36.086 20.9469 34.2827 20.3596 33.0171 19.1524C31.8782 18.0757 31.277 16.5096 31.277 14.7151C31.277 12.6595 32.068 11.0281 33.5866 9.95143C35.2002 8.77683 37.3199 8.09165 40.1674 7.83063C41.4012 7.70012 42.3504 7.66749 44.6283 7.60224ZM44.6283 12.6921V11.7786C41.8125 11.8438 40.4521 12.007 39.1549 12.4311C38.016 12.8227 37.3199 13.6383 37.3199 14.5845C37.3199 15.7591 38.2691 16.4443 39.9143 16.4443C41.2114 16.4443 42.6351 15.9549 43.4894 15.2045C44.217 14.5519 44.6283 13.671 44.6283 12.6921Z" fill="#008A73"/>
<path id="Vector_3" d="M23.2224 20.4901H17.8439C17.6857 19.5439 17.4326 18.5651 16.8631 16.6727L14.9332 10.1472C14.775 9.59252 14.6484 9.16836 14.5852 8.87471C14.3637 9.62515 14.3637 9.6904 14.2055 10.1472L12.2756 16.6727C11.8327 18.1083 11.4214 19.7071 11.2948 20.4901H5.91633C5.69486 19.3155 5.47339 18.4346 4.96718 16.6727L1.42371 4.82889C1.0757 3.68692 0.601124 2.25131 0 0.587295H6.80219C6.86547 1.72926 7.0553 2.90386 7.40332 4.43735L8.76376 10.2777C8.92195 11.0608 9.0485 11.5828 9.08014 11.8438C9.4598 10.5713 9.4598 10.5713 9.52307 10.2777L11.2948 4.33947C12.149 1.27248 12.149 1.27248 12.2756 0.587295H16.8947C16.9897 1.23985 17.3693 2.80597 17.8439 4.33947L19.6789 10.5061C19.7422 10.7345 19.932 11.4523 20.0586 11.8438C20.1535 11.3544 20.1535 11.3544 20.3433 10.4735L21.6721 4.69838C22.0518 3.00174 22.2732 1.63138 22.3365 0.587295H29.1387C28.6641 1.82715 28.1896 3.29539 27.715 4.82889L24.1715 16.6727C23.602 18.5651 23.4122 19.3808 23.2224 20.4901Z" fill="#008A73"/>
</g>
</svg>
