<svg width="76" height="93" viewBox="0 0 76 93" fill="none" xmlns="http://www.w3.org/2000/svg">
<g id="Group 24">
<path id="Union" d="M37.975 0.00565472C37.9736 0.00611137 37.9726 0.00741234 37.9726 0.00887947C37.9726 0.0103063 37.9717 0.0115807 37.9704 0.0120684L37.9498 0.0195463L1.2793 13.2313C1.21822 13.2532 1.1743 13.3071 1.16526 13.3714L1.16499 13.3733C-2.62567 40.7957 3.29598 59.9591 12.2558 72.7715C20.0044 83.8517 30.0193 90.1718 37.9665 92.9777C37.9702 92.979 37.9726 92.9825 37.9726 92.9864C37.9726 92.9928 37.9789 92.9973 37.9849 92.995C37.9882 92.9938 37.9915 92.9926 37.9947 92.9914C37.9982 92.9902 38.0021 92.9902 38.0056 92.9915C38.0088 92.9926 38.0119 92.9938 38.0151 92.995C38.0211 92.9973 38.0274 92.9928 38.0274 92.9864C38.0274 92.9825 38.0298 92.979 38.0335 92.9777C45.9807 90.1718 55.9956 83.8517 63.7442 72.7715C72.704 59.9591 78.6257 40.7957 74.835 13.3733L74.8347 13.3714C74.8257 13.3071 74.7818 13.2532 74.7207 13.2313L38.0502 0.0195463L38.0296 0.0120684C38.0283 0.0115807 38.0274 0.0103063 38.0274 0.00887947C38.0274 0.00741234 38.0264 0.00611137 38.0251 0.00565472L38.0094 0.000523106C38.0074 -0.000133432 38.0052 -0.000122803 38.0032 0.000553404C38.0012 0.00122293 37.9991 0.00124013 37.9971 0.000602475L37.9969 0.000539365C37.9948 -0.000128632 37.9926 -0.000121639 37.9905 0.000559345L37.975 0.00565472Z" fill="#DF3F42"/>
<path id="Icon" d="M59.7029 32.6979L33.7878 58.9072L21.8182 47.1849" stroke="#FFF9F2" stroke-width="7" stroke-linecap="round" stroke-linejoin="round"/>
</g>
</svg>
