<svg width="71" height="71" viewBox="0 0 71 71" fill="none" xmlns="http://www.w3.org/2000/svg">
<path d="M0 0H24.9967C28.8627 0 31.9967 3.13401 31.9967 7V31.9967H7C3.13401 31.9967 0 28.8627 0 24.9967V0Z" fill="#FFF9F2"/>
<path d="M39.0032 7C39.0032 3.13401 42.1372 0 46.0032 0H70.9999V24.9967C70.9999 28.8627 67.8659 31.9967 63.9999 31.9967H39.0032V7Z" fill="#FFF9F2"/>
<path d="M0 46.0034C0 42.1374 3.13401 39.0034 7 39.0034H31.9967V64.0001C31.9967 67.8661 28.8627 71.0001 24.9967 71.0001H0V46.0034Z" fill="#FFF9F2"/>
<path d="M39.0032 39.0034H63.9999C67.8659 39.0034 70.9999 42.1374 70.9999 46.0034V71.0001H46.0032C42.1372 71.0001 39.0032 67.8661 39.0032 64.0001V39.0034Z" fill="#FFF9F2"/>
</svg>
