<svg width="82" height="106" viewBox="0 0 82 106" fill="none" xmlns="http://www.w3.org/2000/svg">
<path d="M73.4435 0C78.1691 0 82 3.83498 82 8.56566V82.7379C78.1306 85.331 75.5826 89.7462 75.5826 94.7576C75.5826 98.2769 76.8395 101.502 78.9278 104.009C77.4427 105.252 75.5305 106 73.4435 106H8.55652C3.83089 106 0 102.165 0 97.4343V8.56566C1.27487e-06 3.83498 3.83089 0 8.55652 0H73.4435ZM15.8652 83.1583C11.238 83.1583 7.48696 86.9133 7.48696 91.5455C7.48696 96.1776 11.238 99.9327 15.8652 99.9327H70.413C70.6942 99.9327 70.9721 99.9183 71.2462 99.8912C70.8191 98.3119 70.5913 96.6506 70.5913 94.936C70.5913 94.697 70.5961 94.4591 70.6049 94.2222H21.0348C19.8534 94.2222 18.8957 93.2635 18.8957 92.0808C18.8957 90.8981 19.8534 89.9394 21.0348 89.9394H71.2584C71.8476 87.7803 72.8086 85.7749 74.0695 83.9972C72.9646 83.4598 71.724 83.1583 70.413 83.1583H15.8652ZM52.9954 20.7003C50.5055 22.2964 49.3112 22.1781 45.8813 22.6954C25.3021 25.7989 26.837 39.2475 30.0975 44.8634C34.188 37.2377 41.4351 31.341 44.5475 29.3458C44.4913 29.5978 44.4388 29.8201 44.3887 30.0181C44.0443 31.3784 43.1265 32.4944 42.1455 33.5C35.31 40.5073 32.5891 46.9586 30.0975 51.5135C27.9634 55.415 30.9867 56.3906 32.7652 56.3906C32.5873 51.2476 33.4323 50.2574 33.8769 50.4051C35.3806 50.5642 38.5023 50.6852 41.0494 50.6045C42.7835 50.5496 44.4891 50.0689 45.9161 49.0849C55.8019 42.2675 54.8642 27.6026 52.9954 20.7003Z" fill="#FFF9F2"/>
</svg>
