<svg width="88" height="97" viewBox="0 0 88 97" fill="none" xmlns="http://www.w3.org/2000/svg">
<path d="M44 58C53.072 58 60.4833 65.2421 60.9733 73.725H61V97H27V73.725H27.0267C27.5167 65.2421 34.928 58 44 58Z" fill="#31A050"/>
<path d="M68.5 72C76.2376 72.0002 82.5586 76.6424 82.9766 82.0801H83V97H67V77.3105H66.9717C66.8573 75.5357 66.386 73.8182 65.6191 72.2188C66.5501 72.0759 67.5137 72 68.5 72Z" fill="#31A050"/>
<ellipse cx="44" cy="40.5" rx="13" ry="13.5" fill="#31A050"/>
<ellipse cx="68.5" cy="59" rx="9.5" ry="10" fill="#31A050"/>
<path d="M19.5 72C11.7624 72.0002 5.44142 76.6424 5.02344 82.0801H5V97H21V77.3105H21.0283C21.1427 75.5357 21.614 73.8182 22.3809 72.2188C21.4499 72.0759 20.4863 72 19.5 72Z" fill="#31A050"/>
<ellipse cx="9.5" cy="10" rx="9.5" ry="10" transform="matrix(-1 0 0 1 29 49)" fill="#31A050"/>
<path d="M39.8668 1.79419C41.8382 -0.0609948 44.9559 -0.0130097 46.8688 1.94751L59.2839 14.6723C59.9102 15.3143 60.9997 14.8709 60.9997 13.974V9.00024C60.9997 7.34349 62.3429 6.00041 63.9997 6.00024H67.9997C69.6565 6.00024 70.9997 7.34339 70.9997 9.00024V25.0002C70.9996 25.2343 70.9722 25.4618 70.9209 25.6801C70.8231 26.0963 70.877 26.5554 71.1755 26.8614L86.1471 42.2073C87.6896 43.7886 87.658 46.3209 86.0768 47.8635C84.4955 49.4057 81.9631 49.3743 80.4206 47.7932L44.0325 10.4945C43.6376 10.0897 42.9859 10.0927 42.5946 10.501L6.88833 47.7678C5.35997 49.3626 2.82711 49.4171 1.23208 47.8889C-0.362871 46.3607 -0.416995 43.8278 1.11099 42.2327L39.6803 1.97974L39.8668 1.79419Z" fill="#31A050"/>
</svg>
