<svg width="32" height="32" viewBox="0 0 32 32" fill="none" xmlns="http://www.w3.org/2000/svg">
<!-- ReSwap R symbol favicon - extracted from main logo -->
<path d="M30.1 19.5C30.1 22.4 29.1 24.1 27.1 25.8C25.1 27.5 22.1 28 19.2 28C17.7 28 16.4 27.8 15.1 27.3C15 27.3 14.9 27.2 14.8 27.2C14.7 27.2 14.6 27.1 14.5 27.1C14.4 27.1 14.3 27 14.2 27L14.1 27.1L13.4 28.1L13 28.7C12.9 28.9 12.6 28.8 12.5 28.6L12.4 28.1L10.3 20.1C10.3 19.9 10.4 19.7 10.6 19.7L14.2 19.6L19.3 19.5C19.5 19.5 19.6 19.8 19.5 20L17.8 22.2C17.9 22.2 18 22.3 18.1 22.3H18.1C18.2 22.3 18.3 22.3 18.4 22.4C18.4 22.4 18.5 22.4 18.5 22.4C19.9 22.5 21.4 22.1 22 20.8C22.4 20.1 22.4 19.2 22 18.5C21.2 17.1 19.2 16.4 17.8 15.9C16.5 15.4 15.5 14.9 15 14.5C14.9 14.4 14.8 14.2 14.8 14.1V13.9C14.8 11.3 15.4 9.4 16.5 8.4C16.7 8.2 16.9 8.1 17.1 7.9C17.4 7.7 17.8 7.8 18 8.1C18.9 9.5 21.9 11.2 22.8 11.5C24.6 12.2 26.6 13 28 14.4C28.2 14.5 28.3 14.7 28.5 14.9C29.5 16.1 30.1 17.6 30.1 19.5Z" fill="#31A050"/>
<path d="M29.6 9.4C29.6 9.6 29.5 9.8 29.3 9.8L21 8.9C20.8 8.9 20.7 8.6 20.8 8.4L22.3 6.9C22.4 6.8 22.4 6.6 22.3 6.5L22.3 6.5C18.8 4.8 14.7 7.3 13.9 10.9C13.6 12 13.5 13.1 13.5 14.2V14.6C13.5 14.6 13.5 14.6 13.5 14.6C13.5 15.3 13.5 16.1 13.5 16.7C13.5 17.2 13.5 17.8 13.5 18.4C13.5 18.6 13.4 18.7 13.2 18.7L9.5 18.8L9.1 18.8C8.9 18.8 8.8 19 8.9 19.2L9 19.6L11 27.4C11 27.6 10.9 27.8 10.7 27.8H8C7.7 27.8 7.5 27.5 7.5 27.2V1.2C7.5 0.9 7.7 0.6 8 0.6C8 0.6 12.8 0.6 12.8 0.6C13.4 0.6 13.4 1.2 13.4 1.6C13.4 1.7 13.4 1.8 13.5 1.8C13.6 1.9 13.7 1.8 13.8 1.8C14.7 1.2 15.6 0.6 16.7 0.3C17.8 0.1 19 0 20.1 0H20.1C22.3 0 24.2 0.9 26 2.1C26.1 2.2 26.2 2.3 26.3 2.2C26.4 2.2 26.5 2.1 26.6 2C26.9 1.6 27.2 1.1 27.6 0.6C27.7 0.4 28 0.5 28 0.8L29.6 9.4Z" fill="#31A050"/>
</svg>
