<svg width="70" height="99" viewBox="0 0 70 99" fill="none" xmlns="http://www.w3.org/2000/svg">
<path d="M35 0C54.5623 0 69.9999 16.5961 70 36.5361L69.9873 37.5068C69.9789 37.8278 69.9669 38.1459 69.9512 38.4609C69.9498 38.4892 69.9445 38.5873 69.9404 38.6621C69.9208 39.0186 69.8967 39.3705 69.8682 39.7158C69.8607 39.8063 69.8518 39.903 69.8428 40.0029C69.8313 40.1296 69.82 40.2519 69.8086 40.3662C69.7999 40.4533 69.7901 40.5383 69.7832 40.6035C69.7711 40.7173 69.7575 40.8518 69.7412 40.9912L69.7119 41.2402C69.6941 41.3844 69.6702 41.5554 69.6611 41.623C69.659 41.639 69.6574 41.653 69.6514 41.7002C69.6464 41.7389 69.6378 41.802 69.6279 41.8721C69.6195 41.9318 69.6113 41.9867 69.6055 42.0254C69.5986 42.071 69.5964 42.0908 69.5928 42.1152C69.4707 42.9463 69.3209 43.7678 69.1465 44.5781C69.1246 44.6797 69.0988 44.8015 69.0703 44.9277C69.0525 45.007 69.0344 45.0837 69.0205 45.1436C68.9922 45.2658 68.9595 45.4071 68.9238 45.5537L68.8809 45.7266C68.8497 45.8521 68.818 45.9766 68.7861 46.0996L68.5449 46.9844C68.5105 47.1048 68.4757 47.2245 68.4512 47.3076L68.375 47.5645C68.3413 47.6758 68.3023 47.8004 68.2842 47.8584C68.2662 47.9159 68.2307 48.0306 68.1973 48.1348C68.1501 48.282 68.102 48.4268 68.0547 48.5684C67.8726 49.1135 67.6794 49.6519 67.4746 50.1826C67.4509 50.244 67.4176 50.3291 67.3838 50.415C67.3457 50.5117 67.3048 50.6123 67.2812 50.6709V50.6719L67.166 50.9541C67.115 51.078 67.0658 51.1965 67.0225 51.2988H67.0215C66.9995 51.3508 66.9757 51.4083 66.9502 51.4678C66.8992 51.5866 66.8442 51.7127 66.7871 51.8418C66.7669 51.8874 66.7381 51.9517 66.709 52.0166C66.6754 52.0915 66.611 52.2365 66.5498 52.3691V52.3701C66.51 52.4564 66.4652 52.5491 66.4424 52.5977C66.4011 52.6856 66.3585 52.7782 66.3135 52.8721H66.3125L66.1787 53.1484C65.5526 54.4268 64.8564 55.6613 64.0957 56.8467L63.7656 57.3516C63.7524 57.3715 63.7406 57.3896 63.7354 57.3975C63.7321 57.4023 63.7302 57.4051 63.7295 57.4062L63.7285 57.4053C62.4924 59.2566 61.0959 60.985 59.5566 62.5674V62.5684C59.5314 62.5943 59.5091 62.6168 59.502 62.624C59.501 62.625 59.4997 62.6253 59.499 62.626C59.498 62.627 59.4977 62.6283 59.4971 62.6289C59.4959 62.6301 59.4951 62.6309 59.4951 62.6309V62.6299L59.0957 63.0332C58.1388 63.9816 57.1294 64.8748 56.0723 65.708C55.2481 66.3577 54.7922 67.0123 54.5928 67.5684L53.0957 71.7432C53.0517 72.2316 52.9541 72.7046 52.8135 73.1582C53.5457 73.8831 54 74.8882 54 76C54 77.5065 53.1669 78.8178 51.9365 79.5C53.1669 80.1822 54 81.4935 54 83C54 85.2091 52.2091 87 50 87H49.9141C49.0621 94.33 42.0235 99 35 99C27.9765 99 20.9379 94.33 20.0859 87H19C16.7909 87 15 85.2091 15 83C15 81.4938 15.8326 80.1823 17.0625 79.5C15.8326 78.8177 15 77.5062 15 76C15 74.511 15.8136 73.2121 17.0205 72.5234C16.9673 72.2672 16.9271 72.006 16.9033 71.7402L15.4062 67.5684C15.2068 67.0125 14.7514 66.3583 13.9277 65.709C12.7195 64.7567 11.5737 63.725 10.4971 62.623C10.4979 62.6239 10.4983 62.6252 10.499 62.626C10.4985 62.6255 10.4978 62.6247 10.4971 62.624C10.4899 62.6168 10.4676 62.5943 10.4424 62.5684V62.5674C8.90322 60.9851 7.50574 59.2568 6.26953 57.4053C6.26864 57.4039 6.26638 57.4015 6.26367 57.3975L6.2334 57.3516C5.4544 56.1803 4.73888 54.9593 4.09277 53.6934L3.82031 53.1484C3.78346 53.0732 3.73445 52.974 3.68555 52.8721C3.64057 52.7783 3.59704 52.6868 3.55566 52.5986L3.55664 52.5977C3.53391 52.5492 3.4891 52.4556 3.44922 52.3691L3.29004 52.0166C3.26093 51.9517 3.23217 51.8876 3.21191 51.8418C3.15485 51.7128 3.09992 51.5867 3.04883 51.4678L3.0498 51.4668C3.02437 51.4076 2.99956 51.3508 2.97754 51.2988H2.97656L2.83301 50.9541C2.79377 50.8588 2.75526 50.7641 2.71777 50.6709C2.69428 50.6125 2.6533 50.5117 2.61523 50.415C2.5814 50.3291 2.54819 50.2442 2.52441 50.1826C2.31967 49.652 2.12642 49.1135 1.94434 48.5684C1.89709 48.4269 1.84898 48.2821 1.80176 48.1348C1.76838 48.0306 1.73285 47.9161 1.71484 47.8584C1.6968 47.8006 1.65775 47.6758 1.62402 47.5645C1.59638 47.4732 1.55222 47.3224 1.54785 47.3076L1.54883 47.3066L1.4541 46.9844C1.3708 46.6925 1.29009 46.3975 1.21289 46.0996L1.11816 45.7266C1.11206 45.702 1.0909 45.6183 1.0752 45.5537L0.978516 45.1436C0.964678 45.0838 0.946565 45.007 0.928711 44.9277C0.900281 44.8015 0.874438 44.6798 0.852539 44.5781C0.678111 43.7679 0.528362 42.9463 0.40625 42.1152C0.402654 42.0908 0.400402 42.071 0.393555 42.0254C0.387737 41.9867 0.379486 41.9319 0.371094 41.8721C0.361261 41.802 0.352576 41.7389 0.347656 41.7002C0.341655 41.653 0.340015 41.639 0.337891 41.623L0.287109 41.2402C0.275575 41.1467 0.263186 41.0373 0.257812 40.9912C0.241554 40.8518 0.227916 40.7173 0.21582 40.6035C0.208901 40.5384 0.199141 40.4534 0.19043 40.3662C0.179009 40.2519 0.167697 40.1297 0.15625 40.0029C0.147232 39.9031 0.138345 39.8063 0.130859 39.7158C0.102293 39.3705 0.0782302 39.0186 0.0585938 38.6621C0.0544785 38.5874 0.0492595 38.4892 0.0478516 38.4609C0.0320154 38.1431 0.0207822 37.8237 0.0126953 37.5029L0 36.5361C0.000118499 16.5961 15.4377 0 35 0ZM25.1582 87C25.992 90.9787 30.0795 94 35 94C39.9205 94 44.008 90.9787 44.8418 87H25.1582ZM35 5C18.4315 5 5.0001 19.1192 5 36.5361L5.01074 37.377C5.01778 37.6562 5.02817 37.9345 5.04199 38.2119C5.04491 38.2704 5.04756 38.3293 5.05078 38.3877C5.06766 38.6941 5.08911 38.9997 5.11426 39.3037C5.12113 39.3868 5.12826 39.4698 5.13574 39.5527C5.14527 39.6583 5.1555 39.7639 5.16602 39.8691C5.17288 39.9379 5.18021 40.0066 5.1875 40.0752C5.19945 40.1876 5.21154 40.3001 5.22461 40.4121C5.23301 40.4842 5.24113 40.557 5.25 40.6289C5.26366 40.7397 5.2792 40.8505 5.29395 40.9609C5.30359 41.0332 5.31215 41.1057 5.32227 41.1777C5.33215 41.2482 5.34319 41.3184 5.35352 41.3887C5.4594 42.1093 5.58876 42.8218 5.74023 43.5254C5.76204 43.6266 5.78391 43.7282 5.80664 43.8291C5.82071 43.8915 5.83519 43.9543 5.84961 44.0166C5.87708 44.1353 5.90484 44.2539 5.93359 44.3721C5.94573 44.422 5.95834 44.4717 5.9707 44.5215C5.9975 44.6294 6.02488 44.7373 6.05273 44.8447C6.11936 45.1018 6.18911 45.3579 6.26172 45.6123C6.28844 45.7059 6.31622 45.7993 6.34375 45.8926C6.36557 45.9665 6.38685 46.0406 6.40918 46.1143C6.43498 46.1994 6.46182 46.2843 6.48828 46.3691C6.51324 46.4492 6.53792 46.5296 6.56348 46.6094C6.60367 46.7348 6.64488 46.8597 6.68652 46.9844C6.84383 47.4554 7.01176 47.9214 7.18945 48.3818C7.21534 48.4489 7.24127 48.5162 7.26758 48.583C7.29679 48.6572 7.32671 48.7317 7.35645 48.8057C7.38926 48.8872 7.4226 48.9686 7.45605 49.0498C7.49713 49.1496 7.53903 49.2494 7.58105 49.3486C7.60177 49.3975 7.62261 49.4464 7.64355 49.4951C7.68993 49.6031 7.73668 49.711 7.78418 49.8184C7.80654 49.8689 7.82896 49.9194 7.85156 49.9697C7.89728 50.0716 7.94253 50.1741 7.98926 50.2754C8.0198 50.3416 8.05106 50.4077 8.08203 50.4736C8.11912 50.5526 8.15664 50.6314 8.19434 50.71C8.23264 50.7898 8.27161 50.8697 8.31055 50.9492C8.92924 52.2125 9.62705 53.4261 10.3965 54.583C10.4067 54.5984 10.4175 54.6135 10.4277 54.6289C11.4956 56.2283 12.7012 57.7187 14.0264 59.0811C14.0419 59.097 14.0577 59.113 14.0732 59.1289C15.0002 60.0777 15.9854 60.9639 17.0225 61.7812C18.3923 62.8609 19.5243 64.2382 20.1133 65.8799L21.7646 70.4824C21.8378 70.6863 21.875 70.9015 21.875 71.1182C21.875 71.4371 21.9557 71.7368 22.0957 72H33.167V52.6377H30.7773C22.0639 52.6376 15.0002 45.5738 15 36.8604H18.4902C25.603 36.8605 31.6156 41.5673 33.585 48.0361H33.6504L33.7354 46.7188C34.4065 36.1911 43.4791 28.2812 54 29.0518L53.6484 34.5615C53.0819 43.45 46.5266 50.4718 38.167 51.9795V72H47.9043C48.0158 71.7904 48.0901 71.5579 48.1152 71.3105L48.125 71.1182C48.125 70.9016 48.1622 70.6863 48.2354 70.4824L49.8857 65.8799C50.4379 64.3405 51.4674 63.0344 52.7227 61.9873L52.9775 61.7812C54.0143 60.964 54.999 60.0775 55.9258 59.1289C55.9413 59.113 55.9571 59.097 55.9727 59.0811C57.2979 57.7187 58.5034 56.2283 59.5713 54.6289L59.6025 54.583C60.2758 53.5708 60.8946 52.5152 61.4531 51.4209L61.6885 50.9492C61.7274 50.8697 61.7664 50.7898 61.8047 50.71C61.8424 50.6313 61.8799 50.5526 61.917 50.4736L62.0098 50.2754C62.0565 50.1741 62.1017 50.0716 62.1475 49.9697L62.2148 49.8184C62.2623 49.711 62.3091 49.6031 62.3555 49.4951L62.418 49.3486C62.46 49.2494 62.5019 49.1496 62.543 49.0498L62.6426 48.8057C62.6723 48.7317 62.7022 48.6572 62.7314 48.583C62.7578 48.5162 62.7837 48.4489 62.8096 48.3818C62.9873 47.9214 63.1552 47.4554 63.3125 46.9844L63.4355 46.6094L63.5107 46.3691C63.5372 46.2843 63.564 46.1994 63.5898 46.1143C63.6122 46.0406 63.6335 45.9665 63.6553 45.8926L63.7373 45.6123C63.8099 45.3579 63.8797 45.1018 63.9463 44.8447C63.9741 44.7372 64.0015 44.6294 64.0283 44.5215L64.0654 44.3721L64.1494 44.0166L64.1924 43.8291C64.2151 43.7282 64.237 43.6266 64.2588 43.5254C64.3724 42.9977 64.4734 42.4651 64.5615 41.9277L64.6455 41.3887L64.6768 41.1777C64.6869 41.1057 64.6954 41.0332 64.7051 40.9609L64.749 40.6289C64.7579 40.557 64.766 40.4842 64.7744 40.4121C64.7875 40.3001 64.7996 40.1876 64.8115 40.0752C64.8188 40.0066 64.8261 39.9379 64.833 39.8691C64.8435 39.7639 64.8538 39.6583 64.8633 39.5527L64.8848 39.3037L64.9482 38.3877C64.9515 38.3293 64.9541 38.2704 64.957 38.2119C64.9709 37.9345 64.982 37.6562 64.9893 37.377L65 36.5361C64.9999 19.1192 51.5685 5 35 5ZM10.5029 62.6289L10.5039 62.6299V62.6309L10.499 62.626C10.5004 62.6274 10.5019 62.6279 10.5029 62.6289Z" fill="#31A050"/>
</svg>
