<svg width="60" height="82" viewBox="0 0 60 82" fill="none" xmlns="http://www.w3.org/2000/svg">
<path d="M40.8425 4.58385C-6.60061 11.7143 -3.06198 42.6128 4.45474 55.5155C13.8848 37.995 30.5925 24.4472 37.7675 19.8634C37.638 20.4424 37.5166 20.9529 37.401 21.4081C36.6071 24.5334 34.4916 27.0972 32.2299 29.4077C16.4714 45.5074 10.1987 60.3299 4.45474 70.795C-0.465298 79.759 6.50476 82 10.6048 82C10.1948 70.1839 12.1423 67.9089 13.1673 68.2484C16.634 68.6138 23.8308 68.8918 29.7031 68.7064C33.7009 68.5801 37.633 67.4756 40.9228 65.2146C63.7133 49.5513 61.5512 15.8582 57.2427 0C51.5026 3.66708 48.7498 3.39543 40.8425 4.58385Z" fill="#31A050"/>
</svg>
