<svg width="124" height="84" viewBox="0 0 124 84" fill="none" xmlns="http://www.w3.org/2000/svg">
<path fill-rule="evenodd" clip-rule="evenodd" d="M62.3057 0.418945L61.7217 1.23145C62.261 0.480405 62.3023 0.42296 62.3057 0.418945L62.3076 0.420898C62.3084 0.421456 62.3094 0.422037 62.3105 0.422852C62.3137 0.425098 62.3186 0.428578 62.3242 0.432617C62.3354 0.440692 62.3514 0.452639 62.3721 0.467773C62.4135 0.498135 62.4739 0.542405 62.5518 0.600586C62.7076 0.717131 62.9339 0.889173 63.2207 1.11328C63.7942 1.56142 64.6098 2.21947 65.5869 3.06543C67.54 4.75638 70.146 7.20439 72.7539 10.2324C75.3606 13.2591 78.001 16.9031 79.9844 20.9795C86.3536 18.6263 93.1757 18.0067 98.4502 17.9785C101.212 17.9638 103.567 18.1104 105.232 18.2617C106.066 18.3374 106.728 18.4145 107.184 18.4727C107.411 18.5017 107.587 18.5266 107.708 18.5439C107.768 18.5526 107.815 18.5596 107.847 18.5645C107.863 18.5669 107.875 18.568 107.884 18.5693C107.888 18.57 107.891 18.5709 107.894 18.5713H107.896L107.897 18.5723C107.897 18.5772 107.888 18.6386 107.767 19.4004L107.897 18.5723L108.613 18.6855L108.729 19.4004C108.74 19.4704 111 33.5015 106.661 46.1064C116.477 52.249 123.025 61.2238 123.046 61.2529L123.477 61.8418L123.046 62.4316C122.996 62.4999 119.225 67.6553 113.145 72.8096C107.073 77.9564 98.5456 83.2314 89.0244 83.2314C77.7423 83.2313 67.8419 75.8232 61.7373 69.9414C55.6328 75.8231 45.7337 83.2312 34.4521 83.2314C24.9397 83.2314 16.4194 77.9665 10.3486 72.8242C4.26041 67.6671 0.483218 62.5036 0.430664 62.4316L0 61.8418L0.430664 61.252C0.488667 61.1725 7.02597 52.232 16.8145 46.1064C12.478 33.5086 14.7342 19.4862 14.748 19.4004L14.8633 18.6855L15.5791 18.5723C15.7018 18.5528 30.5449 16.2083 43.4639 20.9697C46.3433 15.0557 50.6184 10.029 54.2188 6.44434C56.1193 4.55206 57.8435 3.05045 59.0938 2.02051C59.7188 1.50563 60.2261 1.10803 60.5791 0.837891C60.7555 0.702902 60.8935 0.59946 60.9883 0.529297C61.0355 0.494322 61.0725 0.467596 61.0977 0.449219C61.1102 0.440058 61.1201 0.432689 61.127 0.427734C61.1302 0.425354 61.1328 0.423272 61.1348 0.421875C61.1357 0.421169 61.1371 0.420361 61.1377 0.419922C61.1413 0.424456 61.1813 0.47916 61.6367 1.11328L61.1387 0.418945L61.7217 0L62.3057 0.418945ZM19.4941 52.083C17.7501 53.2273 16.0892 54.493 14.5391 55.8076C11.9971 57.9635 9.8914 60.1321 8.36133 61.8418C9.8915 63.5516 11.997 65.721 14.5391 67.877L15.0752 68.3252C20.6503 72.9364 27.4765 76.7627 34.4521 76.7627C41.6528 76.7625 48.6938 72.685 54.3643 67.876C54.4152 67.8328 54.465 67.7884 54.5156 67.7451C50.7674 67.7826 46.1122 67.5399 41.3516 66.5586C35.3461 65.3206 29.0958 62.8932 24.3057 58.3027L24.2998 58.2979L23.9941 57.999L23.9873 57.9922C22.188 56.2066 20.7082 54.205 19.4941 52.083ZM103.98 52.082C102.767 54.2039 101.289 56.2066 99.4893 57.9922C94.635 62.8091 88.1984 65.318 82.0303 66.5771C77.3023 67.5424 72.6833 67.7815 68.959 67.7441C69.0101 67.7878 69.0608 67.8323 69.1123 67.876C74.7828 72.6851 81.8237 76.7626 89.0244 76.7627C96.2252 76.7627 103.267 72.686 108.938 67.877C111.479 65.7212 113.584 63.5516 115.114 61.8418C113.584 60.1322 111.479 57.9634 108.938 55.8076C107.387 54.4925 105.725 53.2266 103.98 52.082ZM29.4492 24.6299C26.1093 24.3701 23.0696 24.4258 20.7676 24.5615C20.6311 26.8442 20.5756 29.8564 20.8369 33.166C21.4197 40.5444 23.493 48.3641 28.5811 53.4131C33.6708 58.4632 41.5546 60.5221 48.9932 61.1006C50.6057 61.226 52.1481 61.2768 53.5723 61.2812C47.6334 55.2125 40.175 45.3861 40.1748 34.1904C40.1748 31.7231 40.5372 29.324 41.1631 27.0215C37.4412 25.6546 33.3707 24.9349 29.4492 24.6299ZM102.708 24.5615C100.562 24.4349 97.7742 24.3766 94.7002 24.5801L94.0273 24.6289C90.0947 24.9348 86.0118 25.6577 82.2812 27.0322C82.9061 29.3342 83.2695 31.7285 83.2695 34.1904C83.2694 40.5135 80.8896 46.3869 77.7822 51.3672C75.3635 55.2437 72.4802 58.613 69.8691 61.2812C71.3031 61.2773 72.8583 61.227 74.4844 61.1006C81.9231 60.522 89.8068 58.4635 94.8965 53.4131C99.9845 48.3641 102.058 40.5443 102.641 33.166C102.902 29.8566 102.845 26.8443 102.708 24.5615ZM61.7217 8.30078C59.9968 9.82008 57.806 11.9135 55.6289 14.4414C50.782 20.0693 46.6787 27.0532 46.6787 34.1904C46.6789 41.3278 50.7819 48.3116 55.6289 53.9395C57.8058 56.467 59.9969 58.5589 61.7217 60.0781C63.4464 58.5589 65.6375 56.4671 67.8145 53.9395C72.6615 48.3115 76.7655 41.3278 76.7656 34.1904C76.7656 27.053 72.6615 20.0694 67.8145 14.4414C65.6371 11.9133 63.4466 9.82011 61.7217 8.30078Z" fill="#FFF9F2"/>
</svg>
