<svg width="62" height="101" viewBox="0 0 62 101" fill="none" xmlns="http://www.w3.org/2000/svg">
<path fill-rule="evenodd" clip-rule="evenodd" d="M37.8796 10.354C37.8796 11.3486 38.6181 12.1677 39.5791 12.4241C41.2419 12.8678 42.1267 13.5117 44.0891 14.3572C48.2988 16.0667 51.7813 18.4886 54.5368 21.6226C56.8768 24.2841 58.5273 27.3821 59.4875 30.9169C59.7745 31.9734 59.0715 33.0189 57.9994 33.2407L48.8456 35.1337C48.6609 35.1719 48.4708 35.1754 48.2848 35.1439V35.1439C47.6891 35.0431 47.217 34.5961 47.0302 34.0215C45.9791 30.7881 43.8613 28.28 41.5 26C40.9698 25.4881 40.6102 25.1372 40.2505 24.8695C39.2039 24.0902 37.8796 25.1851 37.8796 26.49V43.4259C37.8796 44.2588 38.3958 45.0045 39.1753 45.2978L41.5628 46.196C48.2221 47.8343 53.2744 50.4347 56.7188 53.9962C60.2395 57.4863 61.9999 61.831 62 67.0304C62 71.5888 60.7754 75.5778 58.3262 78.9967C55.8768 82.3445 52.3937 84.9805 47.8777 86.9037C44.8866 88.1514 42.9933 88.9769 39.7406 89.3834C38.6968 89.5139 37.8796 90.3762 37.8796 91.4281V99C37.8796 100.105 36.9841 101 35.8796 101H28.0127C26.9081 101 26.0127 100.105 26.0127 99V91.0037C26.0127 90.0053 25.2751 89.1655 24.2929 88.986C21.7636 88.5237 19.3683 87.8307 17.1076 86.9037C12.6681 85.0517 8.95576 82.4513 5.97058 79.1035C3.42284 76.1855 1.59962 72.9045 0.501412 69.2602C0.185688 68.2125 0.855311 67.1469 1.91951 66.8922L11.7295 64.5448C11.9449 64.4933 12.1685 64.4858 12.3869 64.5227V64.5227C12.9636 64.6203 13.441 65.0186 13.6693 65.5572C14.6366 67.8398 15.936 69.8977 17.5666 71.7313C19.4802 73.7257 21.738 75.2934 24.3405 76.4331V76.4331C25.1474 76.7865 26.0127 76.1644 26.0127 75.2835V56.4909C26.0127 55.5687 25.3821 54.7661 24.4862 54.5478L23.5372 54.3165C16.7249 52.607 11.5198 49.8644 7.92224 46.0892C4.4013 42.3141 2.64104 37.9334 2.64104 32.9474C2.64109 28.7451 3.78909 25.0769 6.08534 21.9429C8.38163 18.7377 11.5964 16.2447 15.7297 14.464C18.3022 13.3114 21.1268 12.5179 24.2034 12.0828C25.2257 11.9383 26.0127 11.0817 26.0127 10.0493V2C26.0127 0.895428 26.9081 0 28.0127 0H35.8796C36.9841 0 37.8796 0.895431 37.8796 2V10.354ZM37.8796 75.7415C37.8796 76.933 38.917 77.822 39.9516 77.231C40.1494 77.118 40.399 76.9944 40.7596 76.8602C43.0557 75.9343 44.8543 74.6873 46.1555 73.1203C47.5331 71.4822 48.2219 69.6305 48.2219 67.5651C48.2219 65.0011 47.342 62.9709 45.5818 61.4751C43.9036 59.9135 41.3889 58.7051 38.0384 57.8508C38.0172 57.8454 38.0006 57.8287 37.9955 57.8075V57.8075C37.9793 57.7397 37.8796 57.7515 37.8796 57.8212V75.7415ZM26.0127 25.9433C26.0127 24.698 24.8793 23.7427 23.6981 24.137C22.3423 24.5895 21.1405 25.2111 20.0929 26.0032C17.6436 27.7839 16.4183 30.0984 16.4182 32.9474C16.4182 35.2979 17.2989 37.2924 19.0593 38.9306C20.2118 39.9584 21.696 40.8311 23.5116 41.55C24.7431 42.0376 26.0127 41.0721 26.0127 39.7475V25.9433Z" fill="#FFF9F2"/>
</svg>
