<svg width="74" height="72" viewBox="0 0 74 72" fill="none" xmlns="http://www.w3.org/2000/svg">
<path d="M52.7314 43.4854C64.5182 43.7565 74.001 54.7555 74.001 68.2852C74.001 69.4883 73.9242 70.6717 73.7793 71.8291H62.0518C62.1913 70.6528 62.2747 69.4575 62.2959 68.2461L62.3018 67.6221C62.3018 58.2747 58.6659 49.7364 52.7314 43.4854Z" fill="#FFF9F2"/>
<path d="M48.2432 14.1884C50.6464 12.7113 53.4507 12.0985 56.2598 12.6571C62.7941 13.9566 66.8799 21.1015 65.3857 28.6161C63.8914 36.1309 57.3822 41.1694 50.8477 39.87C46.7424 39.0535 43.6047 35.9294 42.209 31.8563C46.0461 27.8758 48.3438 22.2577 48.3438 16.328C48.3437 15.6094 48.3093 14.8955 48.2432 14.1884Z" fill="#FFF9F2"/>
<path d="M28.6514 38.0664C44.4747 38.0666 57.3018 51.299 57.3018 67.6221C57.3018 69.0558 57.201 70.4655 57.0098 71.8447H0.291992C0.100716 70.4655 5.68594e-06 69.0558 0 67.6221C0 51.2989 12.8279 38.0664 28.6514 38.0664Z" fill="#FFF9F2"/>
<ellipse cx="28.7971" cy="16.3282" rx="14.547" ry="16.3282" fill="#FFF9F2"/>
</svg>
