<?xml version="1.0" encoding="UTF-8"?>
<svg id="Layer_1" data-name="Layer 1" xmlns="http://www.w3.org/2000/svg" viewBox="0 0 1920 1080">
  <defs>
    <style>
      .cls-1 {
        fill: #3c8774;
      }

      .cls-2 {
        fill: #3c8875;
      }

      .cls-3 {
        fill: #8b6ade;
      }

      .cls-4 {
        fill: #539d58;
      }

      .cls-5 {
        fill: #8b6add;
      }

      .cls-6 {
        fill: #66a4c6;
      }

      .cls-7 {
        fill: #ce4c48;
      }

      .cls-8 {
        fill: #549e58;
      }
    </style>
  </defs>
  <g>
    <path class="cls-7" d="M674.02,602.05c5.14,10.32.94,18.86-7.65,25.18-2.28,1.68-5.09,1.74-4.42,5.19.36,1.83,2.86,6.24,1.04,7.22-.88.47-7.17,2.39-7.79,2.15-1.57-.6-1.96-7.58-3.77-8.68-.49-.29-7.53.05-9.26-.19-5.08-.69-11.38-3.72-14.74-7.64-.84-.98-2.55-2.73-1.68-3.94.4-.54,7.85-5.13,8.34-5.19.82-.1,3.03,2.54,3.9,3.23,2.53,2,7.01,4.05,10.23,3.09l-5.52-17.64c-3.83-.31-7.62.04-11.4-.82-15.57-3.57-18.83-20.64-6.57-30.5,1.27-1.02,6.22-3.68,6.52-4.36.85-1.95-2.83-7.88-1.89-9.27.46-.67,7.64-2.93,8.38-2.64,1.94.73,1.42,8.37,4.88,9.11,5.74,1.23,9.55.28,15.15,3.77,1.66,1.04,7.02,5.55,6.28,7.53-.25.69-7.66,4.88-8.45,4.88-1.33-.78-2.09-2.23-3.38-3.29-.88-.73-4.92-3.23-5.84-3.2-1.59.04-1.5,1.82-1.27,2.99.84,4.31,3.18,9.26,4.43,13.56,1.13,1.61,6.08.84,8.07.94,6.02.33,13.52,2.7,16.41,8.52ZM662.38,617.41c5.84-6.53.97-13.95-7.4-13.71-.54.02-1.95-.2-1.9.58l4.63,14.71c.71,2.25,3.85-.66,4.67-1.58ZM633.22,593.64c2.13.86,6.44,1.91,5.74-1.77-.28-1.52-3.33-11.12-4-11.85-1.62-1.76-4.82,2.08-5.53,3.55-1.84,3.82-.18,8.47,3.79,10.07Z"/>
    <path class="cls-3" d="M590.77,643.36c.04.31-.5.45-.53.94-.1,1.98-.08,3.18-1.11,5.24-.68,1.34-3.76,4.86-4.98,5.34l-22.85,9.04,2.36,5.96c.06.15-.17.82-.09,1.15l-1.51.52-15.27-6.64-.73-.9,7-16.11c.32-.42,1.92.02,1.98.18l2.85,7.2,21.2-8.39c2.34-1.45,1.88-4.57.5-6.52-.49-.7-4.05-2.64-5.1-3.48-3.16-2.51-6.34-5.11-9.42-7.85-.4-.36-1.28.19-1.26-1.03.87-1.93,4.1-6.85,6.17-6.86.13,0,2.17.94,2.27,1.01.44.33,1.86,2.3,2.28,2.61,4.07,3.06,8.11,5.35,11.73,9.15.12.12.67-.1.84.15,1.21,1.73,3.38,7.18,3.67,9.29Z"/>
    <path class="cls-2" d="M575.86,567.41c2.53,11.43-12.86,21.27-21.69,12.85-2.74,2.73-7.65.69-5.99-3.18l-.32-.4c-1.98.38-3.63-.95-4-2.89-.2-1.08.66-1.52-.48-2.53-3.61-3.19-7.59-2.18-11.88-3.04-29.14-5.86-36.24-47.13-8.31-59.78,20.45-9.27,43.8,7.06,44.68,29.03.19,4.8-2.31,11.17.9,15.21.52.65,1.38.48,1.98,1,1.31,1.14,1.28,2.43,1,4l.31.37c2.44-.65,4.28,1.79,3.56,4.21-.19.66-.91,1.34-.95,1.72-.04.34,1.01,2.6,1.19,3.43ZM557.39,577.64c6.67,5.3,17.81-3.2,13.69-10.89l-13.69,10.89ZM558.14,560.4l6.84-5.45c-.57-2.48-1.84-4.73-2.11-7.31-.27-2.64.96-5.84.99-8.67.25-21.87-25.3-37.47-43.58-24.24-20.27,14.67-9.91,46.47,14.07,49.94,2.09.3,4.49-.09,6.52.56,2.05.66,4.62,2.58,6.27,3.93l8.05-6.41-10.57-13.27c-1.44-.13-2.47,1.52-3.67,2.26-5.49,3.39-13.68,2.09-17.58-3.09l4.15-3.31c3.28-2.61,10.22-1.46,13.63.46.48.27.42.85,1.07.11-6.1-7.2-4.4-18.56,3.44-23.77,1.92,2.56,3.92,5.17,4.88,8.24,1.78,5.67.34,11.61-3.5,16.08l11.1,13.94Z"/>
    <path class="cls-3" d="M560.16,603.29l2.2,16.59-.62,1.47-17.16,2.5-.98-1.34,4.71-5.81-.35-.99c-.13-.16-.69.07-.83-.07-4.13-4.04-10.74-9.37-15.33-12.66-.63-.46-2.53-1.71-3.2-1.65-2.96.26-3.49,2.73-4.14,5.08-.81,2.96-.29,5.43-.61,8.39-.29,2.7-1.28,5.71-1.02,8.61-1.26,1.65-7.05-.26-9.16-.45-1.01-1.43-.21-6.12.01-8.1.34-2.99.73-6.64,1.12-9.67.69-5.47,3.05-10.06,8.61-12.4,5.28-2.23,8.02-1.24,12.49,1.56,4.67,2.93,9.76,7.48,14.23,10.84,1.39,1.04,3.36,3.8,5.3,2.56.24-.16.05-.73.31-1.03,1.08-1.21,2.18-2.42,3.25-3.65l1.17.22Z"/>
    <path class="cls-3" d="M538.41,663.42c1.18.22,3.51,6.12,3.43,7.25-.07.81-.67,1.13-1.3,1.48-3.34,1.84-17.63,7.36-21.06,7.58-1.72.11-4.74-.45-6.38-1.05-.43-.16-3.79-1.9-3.91-2.09-.36-.56-.39-1.35-.76-1.9-.21-.31-.8.19-1.2-.53-.63-1.14-2.15-4.97-2.46-6.23-.2-.79.54-.8.49-1.22-.31-2.6.01-1.65.27-3.74.67-5.47,1.71-11.64,2.48-16.9.15-1.08-.45-2.79.68-3.21l-.15-.39c-.97.66-1.07-.72-1.35-.82-.33-.13-.99.45-1.54.38-.31-.04-1.21-.88-1.62-.96-1.09-.23-3,.88-3.37-1.68,4.87-2.58,9.13-6.39,13.6-9.66l1.49-.36c1.19.11,3.19,3.86,3.99,4.95,1.03,1.38,3.73,5.79,4.51,6.55.09.09.65-.15.84.12.55.79.71,2.12,1.2,3.01l-2.08.45-6.2-.96c-.35.84.01,2.15-.08,2.69-1.11,6.47-2.69,13.55-2.94,20.21,0,.17-.55.38-.52.67l.43,1.1c1.27-.11,1.13,1.07,1.66,1.41.81.53,2.72.8,3.67.57,3.62-.86,15.9-7.15,18.18-6.72Z"/>
    <path class="cls-6" d="M521.17,740.48c7-1.89,15.04,4.96,13.12,12.14-1.44,5.36-5.98,16.48-8.47,21.6-3.85,7.89-14.21,11.82-22.54,9.56l-65.12-25.58c-9.01-5.03-12.64-14.82-9.49-24.59,1.43-4.44,5.94-16.72,8.41-20.06,5.14-6.93,16.57-4.64,18.68,3.73.19.75.55,4.12.35,4.64l-6.99,17.77,58.71,23.06,7.11-18.08c.55-1.4,4.69-3.77,6.23-4.19Z"/>
    <path class="cls-6" d="M532.15,710.73c8.88,7.1-.35,17.74-2.52,26.04l-.53.51c-7.85-2.48-15.46.9-18.77,8.39-1.25,2.86-1.79,6.02-3.15,8.95-.52,1.15-1.35,2.12-1.68,3.36l-51.26-20.14-.28-.63,5.73-14.59c.3-.74.06-4.26-.12-5.24-.88-4.92-4.37-9.02-9.03-10.8,4.28-7.83,4.91-23.92,17.3-21.28l64.31,25.43Z"/>
    <path class="cls-6" d="M497.45,786.04c.06.84-2.45,7.03-3.09,7.91-3.06,4.26-9.97,1.93-9.65-3.37.17-2.64,1.96-6.95,3.86-8.73l8.52,3.34c.1.27.35.57.36.85Z"/>
    <path class="cls-6" d="M488.43,511.32c-2.31,3.24-4.43,6.7-6.94,9.81-12.25,15.2-31.02,29.88-51.31,30.36-17.04.4-22.39-7.09-33.26-18.89-1.57-1.7-1.79-4.33-4.8-3.48-.59.17-3.65,1.72-3.95,2.01l-7.47,7.2c-4.91-5.08-4.72-10.16,2.03-13.16,11.02-4.88,33.63-9.45,45.83-10.55,6.13-.54,13.1.16,18.92-.7,2.99-.44,6.04-1.06,8.36-3.21l-17.06-2.77c-13.57-.48-27.35-.51-40.48,3.5,3.18-10.67,10.86-20.08,21.3-24.37,15.4-6.32,32.5.81,45.47,9.51,7.64,5.13,14.22,12.38,23.36,14.74Z"/>
    <path class="cls-4" d="M474.07,623.67v33.03l-5.74-.06c-1.83-28.64-42.36-28.66-43.5.06l-40.72-.07-.73-.72c-1.12-28.82-42.79-27.92-43.02.79h-7.73c.09-19.33,15.45-38.01,35.66-37.68,4.76-15.66,17.97-24.55,34.08-25.51,12.6-.75,41.49-1.46,52.23,3.79,8.13,3.98,19.47,16.98,19.47,26.37ZM462,622.94c.47-7.51-4.14-15.28-10.46-19.2-1.09-.67-7.29-3.46-8.12-3.46h-17.62v22.66h36.2ZM418.56,622.94v-22.66h-18.59c-1.23,0-6.27,2.24-7.63,2.99-7.06,3.93-11.47,11.56-11.43,19.67h37.65Z"/>
    <path class="cls-6" d="M450.24,766.79l.28.63-3.34,8.51c-.1.26-1.71,1.28-2.14,1.46-3.25,1.33-7.13-1.14-7.27-4.67-.07-1.57,1.92-7.14,2.78-8.5.2-.31.95-.87,1.18-.78l8.51,3.35Z"/>
    <path class="cls-4" d="M443.53,642.35c22.53-3.56,23.12,31.25.9,28.76-16.31-1.83-16.37-26.32-.9-28.76Z"/>
    <path class="cls-7" d="M381.66,714.11c.93,1.72,3.39,8.32,1.76,9.69-.56.47-9.12.46-9.8.07-.77-1.34-.72-2.98-1.32-4.55-.41-1.07-2.71-5.25-3.52-5.68-1.4-.75-2.21.85-2.59,1.98-1.4,4.19-1.81,9.67-2.84,14.04.19,1.96,4.9,3.74,6.58,4.82,5.1,3.26,10.47,9.05,10.12,15.57-.63,11.55-8.52,16.94-19.16,18.2-2.81.34-5.3-1.01-6.42,2.34-.59,1.78-.59,6.87-2.67,6.82-1-.02-7.44-1.46-7.87-1.97-1.08-1.3,2.04-7.6,1.01-9.45-.28-.5-6.61-3.69-8-4.75-4.09-3.12-8.1-8.88-9.09-13.97-.25-1.28-.88-3.65.48-4.27.62-.28,9.4-.6,9.85-.41.78.32,1.4,3.71,1.82,4.75,1.22,3,4.11,7,7.4,7.76l3.91-18.14c-3.19-2.17-6.67-3.73-9.55-6.36-11.83-10.82-6.23-27.35,9.37-29.89,1.61-.26,7.25-.13,7.85-.58,1.71-1.28,1.43-8.29,2.94-9.03.73-.36,8.12,1.22,8.63,1.84,1.33,1.59-2.91,8.01-.25,10.37,4.4,3.92,8.2,4.97,11.36,10.8ZM362.28,757.7c8.33-2.82,7.75-11.71.32-15.64-.48-.25-1.61-1.14-1.95-.44l-3.23,15.15c-.5,2.32,3.68,1.33,4.86.93ZM354.47,723.79c.5-1.47,2.59-11.36,2.37-12.32-.54-2.35-5.24-.58-6.59.35-3.5,2.43-4.35,7.31-1.68,10.68,1.44,1.81,4.69,4.85,5.9,1.29Z"/>
    <path class="cls-7" d="M374.27,441.15c3.76,4.72,7.62,8.59,7.61,15.48-5.91,12.95-9.47,30.82-15.82,43.12-1.57,3.05-6.24,4.05-9.11,3.05l-126.3-47.39c-2.33-2.3-3.56-6.45-2.69-9.93,2.04-8.17,9.17-26.71,12.81-34.57,4-8.62,10.68-11.11,18.95-11.9,14.29-12.88,21.97-38.77,43.41-33.09,16.63,4.41,43.34,14.44,59.05,21.68,8.31,3.84,12.02,7.77,12.61,17.77.68,11.47-.94,24.17-.52,35.78ZM359.01,430.69c.54-1.63.16-16.7-.05-19.38-.45-5.87-.85-7.3-6.07-9.81-12.56-6.03-37.21-15.18-50.66-18.79-3.49-.94-6.21-1.28-9.29,1.33-1.98,1.69-12.27,13.1-13.49,15.14-.87,1.44-2.03,3.7-1.42,5.36.45,1.22,2.65,2.59,3.82,3.16,21.65,10.55,48.63,16.06,70.79,26.24,2.46.83,5.47-.56,6.37-3.25ZM350,474.46c13.59,3.49,19.92-20.27,4.37-22.35-11.32-1.51-16.74,19.17-4.37,22.35ZM254.44,437.32c13.2,10.91,26.47-17.69,7.48-20.26-8.93-1.21-15.54,13.59-7.48,20.26Z"/>
    <path class="cls-3" d="M367.81,569.89c7.88,4.75,7.51,15.67-1.18,19.36l-141.18,45.2c-10.04,2.61-17.7-8.29-11.26-16.68,17.13-17.31,32.65-37.61,49.98-54.57,2.85-2.78,5.83-5.56,9.57-7.16-.52-3.14-4.25-8.73-1.16-11.29,2.04-1.68,4.43-1.44,6-4.63,4.74-9.62-10.45-15.68-13.93-6.11-1.24,3.42,2.12,8.88-2.78,10.1-6.7,1.67-5.97-9.46-4.32-13.4,8.97-21.46,42.02-2.54,25.22,16.82-2.15,2.49-3.51,1.56-1.42,6.07,3.98-.87,8.01-.33,11.95.28,24.63,3.78,49.94,11.44,74.51,16.01ZM364.73,581.27c1.52-1.89.58-4.22-1.79-4.66-23.41-4.06-46.47-10.84-69.88-14.79-5.3-.9-9.33-1.35-14.53.71-3.72,1.47-5.85,3.38-8.62,6.08-17.07,16.62-32.22,36.69-49.22,53.55-1.67,1.73-1.09,4.17,1.25,4.83l142.79-45.72Z"/>
    <path class="cls-4" d="M359.06,641.86c20.27-3.18,23.32,26.09,5.55,28.69-20.35,2.98-22.94-25.96-5.55-28.69Z"/>
    <path class="cls-7" d="M350.74,511.03l-3.81,10.29c-.09.23-2.24,3.3-2.62,3.73-5.86,6.77-16.93,4.43-19.13-3.9-.16-.59-.68-4.84-.59-5.09l4.81-12.95,21.34,7.92Z"/>
    <path class="cls-6" d="M340.4,321.14h-6.89c-.21-25.6-37.38-26.41-38.38-.7l-.65.64-36.33.06c-1.01-25.61-37.16-25.6-38.79-.05l-5.13.05v-29.46c0-8.37,10.12-19.97,17.37-23.52,9.58-4.69,35.35-4.05,46.6-3.38,14.36.85,26.14,8.79,30.4,22.75,18.02-.29,31.73,16.37,31.8,33.61ZM297.34,291.03c.03-7.24-3.9-14.04-10.2-17.55-1.21-.67-5.71-2.66-6.81-2.66h-16.58v20.21h33.59ZM257.29,291.03v-20.21h-15.71c-.75,0-6.27,2.48-7.25,3.08-5.64,3.5-9.75,10.43-9.33,17.13h32.29Z"/>
    <path class="cls-6" d="M307.21,842.91c8.27,23.51,13.44,49.43,21,73.26-.48,9.19-10.29,14.01-17.64,8.08l-106.4-103.2c-7.03-7.63-1.03-19.52,9.4-17.8,23.34,6.95,48.57,11.07,71.69,18.36,3.8,1.2,7.65,2.52,10.83,5.07,2.52-1.95,5.69-7.87,9.41-6.35,2.44,1,3.36,3.23,6.91,3.11,10.72-.35,8.9-16.61-1.18-15.16-3.6.52-6.84,6.05-10.22,2.31-4.63-5.13,5.53-9.73,9.79-10.14,23.15-2.2,22.04,35.87-2.96,30.18-3.2-.73-3.02-2.37-6.02,1.6,2.65,3.11,4.07,6.92,5.39,10.68ZM316.72,918.82c2.38.44,4-1.48,3.27-3.78-7.46-22.56-12.34-46.09-19.89-68.6-1.71-5.1-3.21-8.87-7.48-12.48-3.05-2.59-5.74-3.57-9.43-4.74-22.7-7.22-47.54-11.13-70.43-18.17-2.31-.66-4.18,1-3.67,3.38l107.63,104.39Z"/>
    <path class="cls-6" d="M316.83,307.91c15.51,2.44,13.2,28.25-4.95,25.59-15.86-2.32-13.14-28.43,4.95-25.59Z"/>
    <path class="cls-2" d="M300.92,743.34c.71,2.45-1.7,7.77-3.91,8.58l-29.65,10.92-12.71-34.51c-.03-.09-1.19-.65-1.49-.67-1.3-.11-20.84,7.09-21.75,8.01-.21.21-.73,1.38-.7,1.48l12.72,34.51-30.2,11.12c-2.62.41-7.13-2.2-8.18-4.76l-13.39-36.54,32.52-58.36,63,23.17,13.74,37.05Z"/>
    <path class="cls-2" d="M297.65,689.02c2.4,1.17,3.27,2.16,2.67,4.87-.82,3.76-4.37,11.45-9.23,8.35l-68.9-25.7-1.73,1.74-35.43,64.42c-2.23,3.7-12.08-1.9-13.09-4.27-.56-1.31,2.02-5.67,2.82-7.22,11.13-21.42,24.4-46.99,37-67.32,1.62-2.63,2.99-5.71,6.65-4.61l33.3,12.43-4.5-12.23c-.05-.14.99-2.23,1.3-2.56,1.61-1.76,11.82-5.65,13.88-4.41,3.02,1.8,8.33,23.64,11.32,27.76l23.94,8.75Z"/>
    <path class="cls-7" d="M253.77,475.06l-4.55,12.29c-.44,1.18-4.4,4.33-5.75,4.93-3.89,1.7-8.23.92-11.51-1.49-2.49-1.82-5.01-8.89-3.84-12.02l4.31-11.62,21.34,7.91Z"/>
    <path class="cls-6" d="M241.47,308.34c13.81,2.18,13.75,24.03-.8,25.66-19.82,2.22-19.29-28.83.8-25.66Z"/>
    <path class="cls-6" d="M212.03,519.97l.88,1.21-12.25,17.07-1.83.8-17.85-12.47.25-2.06,9.31-1.27.53-1.21c.02-.25-.68-.52-.7-.78-.31-7.24-1.77-17.8-3.13-24.76-.19-.96-.85-3.74-1.52-4.26-2.93-2.32-5.53-.5-8.14,1.09-3.3,2-4.95,4.72-7.78,7.15-2.59,2.21-6.08,4.12-8.34,6.99-2.57.43-6.23-6.29-8-8.28.3-2.19,5.07-5.79,6.98-7.41,2.88-2.45,6.38-5.45,9.34-7.88,5.34-4.41,11.44-6.58,18.55-3.94,6.74,2.5,8.4,5.77,10.08,12.17,1.76,6.7,2.49,15.24,3.7,22.16.38,2.14-.2,6.36,2.65,6.89.34.07.67-.63,1.16-.67,2.03-.18,4.08-.33,6.11-.54Z"/>
    <path class="cls-6" d="M210.45,571.64c0,.21.69.49.64.87-.39,2.62-3.09,9.48-4.64,11.66-.22.32-.84-.03-1.28.4-1.8,1.72-2.82,2.83-5.53,3.83-1.78.65-7.62,1.21-9.15.61l-28.67-11.39-2.98,7.49c-.07.18-.86.6-1.07.98l-1.83-.82-8.26-19.22.11-1.45,20.26-8.73c.66-.09,1.74,1.68,1.66,1.88l-3.59,9.03,26.61,10.57c3.38.68,5.65-2.57,6.07-5.54.15-1.06-1.43-5.9-1.68-7.57-.72-5.01-1.4-10.12-1.86-15.28-.06-.67-1.33-.93-.27-2.03,2.46-1.02,9.65-2.74,11.55-.97.12.11,1.18,2.73,1.21,2.88.12.68-.28,3.7-.16,4.35,1.09,6.3,2.81,11.87,2.86,18.45Z"/>
    <path class="cls-2" d="M194.09,381.93c7.7,15.46,1.41,28.26-11.47,37.74-3.41,2.5-7.63,2.6-6.62,7.77.54,2.74,4.29,9.35,1.55,10.82-1.31.71-10.73,3.58-11.67,3.22-2.35-.89-2.93-11.36-5.65-13-.73-.44-11.28.07-13.87-.28-7.61-1.04-17.06-5.58-22.09-11.45-1.26-1.48-3.83-4.1-2.52-5.91.59-.82,11.76-7.69,12.49-7.78,1.24-.15,4.54,3.8,5.86,4.84,3.79,2.99,10.49,6.06,15.32,4.63l-8.27-26.44c-5.75-.46-11.42.07-17.09-1.23-23.32-5.34-28.22-30.92-9.84-45.71,1.9-1.53,9.33-5.51,9.78-6.53,1.27-2.92-4.25-11.82-2.84-13.89.69-1.01,11.44-4.39,12.56-3.97,2.9,1.1,2.13,12.55,7.31,13.66,8.6,1.85,14.31.42,22.7,5.66,2.49,1.55,10.53,8.31,9.42,11.28-.38,1.03-11.49,7.31-12.67,7.31-1.99-1.17-3.13-3.34-5.06-4.93-1.32-1.09-7.38-4.83-8.76-4.8-2.37.07-2.24,2.73-1.9,4.48,1.27,6.47,4.76,13.89,6.65,20.32,1.68,2.42,9.11,1.26,12.08,1.42,9.02.49,20.26,4.05,24.6,12.77ZM176.65,404.95c8.75-9.79,1.45-20.92-11.09-20.55-.81.02-2.93-.29-2.86.87l6.95,22.05c1.07,3.37,5.77-.99,7-2.37ZM132.94,369.33c3.2,1.29,9.66,2.85,8.61-2.66-.43-2.28-4.99-16.66-5.99-17.75-2.43-2.65-7.23,3.1-8.29,5.31-2.77,5.73-.27,12.7,5.67,15.1Z"/>
    <path class="cls-4" d="M183.16,812.9c1.46,9.59,3.32,31.78,2.96,41.21-.15,4.01-2.78,8.09-6.01,9.83l-150.72,11.43c-3.39.18-8.11-2.35-8.84-6.13-2.98-15.22-1.21-35.56-3.51-51.34,2.14-7.42,7.51-10.37,13.03-14.27,4.09-12.36,6.32-26.53,10.65-38.66,3.76-10.58,8.98-13.64,19.13-15.16,19.16-2.88,51.04-5.31,70.31-4.84,24.84.6,25,30.87,36.34,49.2,8.65,3.44,15.05,8.2,16.66,18.73ZM160.19,837.03c10.76-4.65,8.27-22.64-1.7-24.13-21.24-3.18-15.92,31.74,1.7,24.13ZM145.07,794.38c1.18-1.59.64-4.39.16-6.21-.68-2.58-8.17-18.08-9.78-20.51-2.49-3.77-5.53-4.26-9.57-4.35-15.6-.32-44.99,1.8-60.39,4.35-6.4,1.07-7.28,2.49-9.6,8.66-1.06,2.82-6.2,18.91-6.12,20.83.12,3.18,2.92,5.62,5.83,5.49,27.02-4.01,57.78-1.49,84.38-6.05,1.42-.25,4.23-1.04,5.09-2.21ZM45.75,847.06c14.3.46,14.95-23.49,2.3-25.41-17.38-2.63-18.02,24.91-2.3,25.41Z"/>
    <path class="cls-4" d="M175.52,889.87c.27,3.74-4.65,10.55-7.9,11.73-4.28,1.56-9.19,1.05-12.84-2.01-1.27-1.06-4.54-5.7-4.64-7.1l-1.06-14.64,25.45-1.84.99,13.86Z"/>
    <path class="cls-3" d="M150.87,152.12c6.86,23.53,8.5,53.41-5.58,74.65-11.83,17.84-23.38,17.97-43.35,20.7-2.87.39-5.75-1.27-7.03,2.44-.25.73-.85,4.99-.76,5.51l2.05,12.86c-8.77,1.41-13.86-2.43-12.1-11.54,2.89-14.86,14.42-41.43,22.05-54.78,3.84-6.7,9.57-13.38,12.87-19.99,1.7-3.39,3.25-6.99,2.7-10.92l-15.11,15.58c-10.25,13.64-20.16,27.81-25.47,44.22-8.71-10.95-12.89-25.61-9.8-39.45,4.54-20.4,24.17-32.89,42.45-40,10.77-4.19,22.97-5.75,31.96-13.48,1.68,4.71,3.72,9.38,5.12,14.2Z"/>
    <path class="cls-6" d="M149.85,506.83c.99,1.13-.4,6.28-.6,7.97-.25,2.15-1.57,8.5-1.52,9.87,0,.16.73.43.67.83-.17,1.2-1.16,2.55-1.49,3.78l-2.29-1.36-4.84-6.22c-1.05.47-1.85,1.98-2.39,2.39-6.58,4.97-14.12,10.08-20.08,15.95-.16.16-.82-.11-1.05.18l-.54,1.37c1.24,1,.11,1.96.3,2.72.28,1.19,1.8,3.07,2.87,3.68,4.05,2.32,20.7,7.14,22.41,9.49.88,1.21-2.05,8.62-3.1,9.58-.76.68-1.59.46-2.46.24-4.64-1.19-22.46-8.43-25.79-11.18-1.67-1.38-3.96-4.49-4.93-6.45-.26-.52-1.84-5-1.79-5.28.15-.82.8-1.56.94-2.39.08-.46-.89-.5-.63-1.52.4-1.58,2.3-6.39,3.1-7.81.5-.9,1.18-.26,1.5-.69,1.95-2.64,1.43-1.5,3.46-3.19,5.32-4.43,11.58-9.18,16.8-13.33,1.08-.86,2-2.94,3.39-2.35l.2-.5c-1.46-.22-.36-1.56-.53-1.9-.2-.41-1.3-.44-1.74-.98-.24-.3-.35-1.84-.65-2.28-.8-1.14-3.5-1.77-1.65-4.43,6.68,1.83,13.86,2.02,20.76,2.86l1.67.95Z"/>
    <path class="cls-7" d="M115.26,601.8c31.92,8.04,43.79,48.09,24.73,74.08-4.15,5.68-12.84,10.72-12.85,18.28,0,1.21,1.15,1.8,1.36,2.94.46,2.51-.74,3.96-2.49,5.51v.72c3.4,1.48,3.28,5.95.25,8.07-.83.58-2.26.71-2.66,1.1-.35.36-1.21,3.9-1.76,5.03-7.54,15.41-34.18,12.65-36.62-5.07-5.63.62-9.4-6.19-3.96-9.12v-.74c-2.62-1.38-3.3-4.41-1.95-6.97.75-1.43,2.14-1.14,1.75-3.34-1.23-6.95-6.72-9.43-10.85-14.33-28.08-33.33,1.45-87.14,45.05-76.16ZM134.04,673.95c20.24-24.87,5.17-66.08-27.87-67.59-36.65-1.68-53.79,44.24-29.45,70.12,2.12,2.26,5.24,4,6.97,6.61,1.74,2.62,2.94,7.16,3.6,10.21h15.08v-24.87c-1.53-1.46-4.22-.51-6.28-.76-9.39-1.11-17.6-10.08-17.34-19.59h7.79c6.13,0,13.05,7.66,15.2,12.97.31.75-.29,1.36,1.13,1.1-.41-13.82,11.9-25.31,25.65-24.12-.13,4.69-.22,9.51-1.92,13.91-3.14,8.13-10.21,13.63-18.7,15.24v26.12h12.82c1.62-3.37,2.22-7.11,4.27-10.31,2.1-3.28,6.43-5.82,9.05-9.04ZM116.95,712.39h-25.64c2.8,12.17,23.35,12.6,25.64,0Z"/>
    <path class="cls-3" d="M102.56,461.18c4.72,14.65-.72,29.32-14.21,36.85l-97.59,38.34c-12.49,3.39-28.02-2.49-33.78-14.33-3.74-7.66-10.55-24.33-12.7-32.36-2.88-10.77,9.16-21.02,19.66-18.19,2.32.62,8.52,4.18,9.34,6.28l10.65,27.09,87.98-34.56-10.46-26.64c-.31-.77.24-5.83.52-6.94,3.16-12.54,20.29-15.99,27.99-5.6,3.71,5.01,10.46,23.42,12.6,30.06Z"/>
    <path d="M84.76,507.06c1.29,2.04,4.27,10.39,4.18,12.75-.22,5.28-6.04,8.99-10.91,6.99-.64-.27-3.05-1.79-3.2-2.19l-5.01-12.75.42-.95,12.76-5.01c.34-.14,1.47.7,1.76,1.16Z"/>
    <path class="cls-7" d="M59.82,945.74l15.31,30.56-5.34,2.61c-14.97-25.65-52.46-6.88-40.2,20.21l-37.71,18.81-1-.33c-14.4-26.14-52.52-5.99-39.44,20.68l-7.14,3.58c-8.88-17.92-3.33-42.32,15.51-51.38-2.85-16.7,5.25-31.04,19.7-39.4,11.32-6.54,37.71-20.58,50.08-20.7,9.37-.09,25.88,6.69,30.23,15.36ZM14.83,967.45l33.49-16.78c-3.05-7.16-10.91-12.22-18.58-12.91-1.32-.12-8.34.17-9.11.56l-16.3,8.17,10.5,20.96ZM8.13,970.81l-10.5-20.97-17.19,8.62c-1.14.57-4.77,4.97-5.67,6.3-4.72,6.91-5.26,16.01-1.47,23.5l34.83-17.45Z"/>
    <path class="cls-3" d="M56.08,444.72l8.58,21.86-.41.95-76.82,30.18c-.5-1.86-1.74-3.32-2.53-5.03-2.02-4.39-2.83-9.14-4.72-13.41-4.96-11.23-16.37-16.3-28.12-12.58l-.8-.77c-3.26-12.43-17.08-28.39-3.78-39.02l96.38-38.12c18.58-3.94,19.51,20.16,25.93,31.9-6.98,2.67-12.21,8.8-13.54,16.19-.26,1.46-.61,6.73-.17,7.85Z"/>
    <path class="cls-7" d="M59.46,291.34c.81,1.56,3.39,5.93,2.83,7.24-1.01,2.38-10.89,7.99-13.13,4.29L13.63,238.26l-1.74-1.75-69.09,25.78c-4.87,3.11-8.43-4.6-9.25-8.37-.6-2.72.27-3.72,2.67-4.89l24.01-8.77c3-4.13,8.33-26.04,11.35-27.84,2.07-1.24,12.31,2.65,13.93,4.42.3.34,1.35,2.43,1.3,2.57l-4.52,12.26,33.39-12.46c3.68-1.11,5.05,1.98,6.68,4.62,12.64,20.39,25.94,46.03,37.1,67.51Z"/>
    <path class="cls-4" d="M58.94,884.34l1.11,15.44c0,.34-1.87,4.7-2.22,5.28-4.98,8.28-17.62,7.33-21.8-1.79-.27-.59-1.63-4.56-1.65-4.83l-.88-12.27,25.44-1.83Z"/>
    <path class="cls-7" d="M40.23,977.18c19.2-13.73,35.88,18.19,14.17,26.19-15.94,5.87-27.35-16.76-14.17-26.19Z"/>
    <path class="cls-7" d="M9.9,243.12l32.61,58.52-13.42,36.65c-1.06,2.56-5.58,5.18-8.21,4.77l-30.28-11.16,12.75-34.6c.03-.1-.49-1.28-.7-1.49-.91-.92-20.5-8.14-21.81-8.03-.3.02-1.46.58-1.5.67l-12.74,34.61-29.74-10.95c-2.21-.82-4.63-6.15-3.91-8.6l13.77-37.16,63.18-23.23Z"/>
    <path class="cls-2" d="M-10.79,62.12c38.33-9.65,64.29,37.66,39.6,66.97-3.62,4.3-8.45,6.48-9.53,12.6-.34,1.93.88,1.68,1.54,2.93,1.18,2.25.59,4.91-1.71,6.13v.65c4.78,2.57,1.46,8.56-3.49,8.01-2.15,15.59-25.57,18.01-32.19,4.46-.48-.98-1.24-4.1-1.55-4.41-.35-.35-1.61-.47-2.34-.98-2.66-1.86-2.77-5.79.21-7.09v-.63c-1.53-1.37-2.59-2.64-2.18-4.85.18-1,1.19-1.51,1.19-2.59-.01-6.64-7.64-11.07-11.3-16.06-16.75-22.85-6.31-58.07,21.75-65.14ZM23.09,127.79c21.4-22.76,6.33-63.13-25.89-61.66-29.05,1.33-42.29,37.57-24.5,59.43,2.31,2.83,6.11,5.06,7.96,7.95,1.8,2.81,2.33,6.1,3.75,9.06H-4.32v-22.97c-7.46-1.41-13.68-6.25-16.44-13.39-1.49-3.87-1.57-8.11-1.69-12.23C-10.36,92.94.47,103.03.1,115.18c1.26.23.72-.3.99-.96,1.9-4.67,7.98-11.4,13.37-11.4h6.85c.23,8.36-6.99,16.24-15.25,17.22-1.8.22-4.17-.62-5.52.67v21.86h13.26c.58-2.68,1.63-6.67,3.17-8.98,1.52-2.29,4.26-3.82,6.12-5.8ZM10.26,159.36H-12.28c2.02,11.07,20.08,10.7,22.54,0Z"/>
    <path class="cls-2" d="M27.8,621.24c5.22,13.18,3.41,28.32-3.46,40.5-7.83-15.36-19.86-27.8-32.13-39.65l-17.37-13c.07,3.97,2.18,7.27,4.39,10.36,4.3,6,11.01,11.69,15.85,17.71,9.64,11.98,25.22,36.4,30.41,50.62,3.18,8.71-1.25,13.31-10.13,13.3v-13.02c0-.52-1.26-4.64-1.62-5.32-1.85-3.47-4.43-1.37-7.33-1.31-20.14.46-31.58,2.15-46.06-13.6-17.26-18.76-20.35-48.53-17.28-72.85.62-4.97,1.9-9.91,2.82-14.83,10.1,6.22,22.39,5.84,33.69,8.28,19.17,4.14,40.52,13.38,48.22,32.81Z"/>
    <path d="M18.58,546.56c.49,7.96-9.87,11.45-14.46,5.06-.95-1.33-4.72-10.6-4.64-11.86.03-.41.39-.86.55-1.27l12.76-5.01c2.85,2.68,5.54,9.13,5.79,13.08Z"/>
  </g>
  <g>
    <path class="cls-1" d="M1977.44,607c.98,3.99-12.85,26.39-13.82,32.27l12.42,27.15c.99,2.95.88,4.5-1.87,6.23-3.81,2.41-13.14,5.79-14.55-.82l-35.28-78.55h-2.88s-82.84,23.49-82.84,23.49c-4.91,1.18-8.36-11.63-7.21-14.43.63-1.54,6.39-2.98,8.34-3.59,27.01-8.36,59.23-18.34,86.53-24.58,3.53-.8,7.23-2.21,9.32,1.76l17.06,37.97,6.48-13.82c.07-.15,2.67-1,3.2-1.02,2.79-.11,14.43,5.2,15.1,7.94Z"/>
    <path class="cls-7" d="M1960.37,953.19c-.49,3.31-2.97,1.88-4.37,2.17-.54.12-1.7,1.2-2.1,1.25-.71.09-1.57-.66-2.01-.49-.36.14-.48,1.93-1.73,1.06l-.21.51c1.47.54.69,2.76.89,4.16,1,6.82,2.34,14.81,3.21,21.9.33,2.71.75,1.48.35,4.85-.06.55.89.55.64,1.58-.41,1.63-2.37,6.59-3.19,8.07-.53.94-1.28.29-1.55.69-.48.72-.52,1.73-.99,2.46-.15.24-4.51,2.5-5.07,2.71-2.12.78-6.03,1.5-8.27,1.36-4.45-.29-22.96-7.44-27.29-9.83-.81-.44-1.6-.87-1.68-1.92-.11-1.46,2.92-9.1,4.44-9.39,2.95-.56,18.87,7.59,23.56,8.71,1.23.3,3.7-.05,4.76-.74.68-.44.5-1.96,2.15-1.83l.56-1.42c.03-.38-.66-.64-.67-.87-.33-8.63-2.38-17.8-3.82-26.19-.11-.7.35-2.39-.1-3.49l-8.04,1.25-2.69-.59c.63-1.15.84-2.87,1.56-3.89.24-.35.97-.04,1.08-.15,1.01-1,4.51-6.7,5.84-8.5,1.04-1.41,3.64-6.26,5.18-6.41l1.93.46c5.79,4.25,11.32,9.18,17.63,12.52Z"/>
    <path class="cls-1" d="M1920.49,600.35l32.53,71.56-19.56,41.94c-1.45,2.61-7.86,4.97-10.36,3.8l-33.5-15.71,18.3-38.99c.05-.11-.44-1.53-.67-1.8-.98-1.18-23.06-11.53-24.57-11.53-.35,0-1.76.53-1.81.64l-18.29,38.99-34.12-16.01c-2.5-1.84-4.03-7.75-2.77-10.73l19.44-41.23,75.38-20.93Z"/>
    <path class="cls-6" d="M1947.25,375.02c1.53,3.23,5.34,15.48,2.25,17.81-1.07.81-16.66-.06-17.85-.84-1.27-2.51-1.01-5.5-1.95-8.41-.64-1.99-4.4-9.83-5.84-10.7-2.48-1.5-4.11,1.33-4.91,3.35-2.96,7.49-4.26,17.42-6.56,25.27.14,3.6,8.53,7.3,11.48,9.43,8.96,6.45,18.16,17.52,16.88,29.35-2.29,20.96-17.19,29.98-36.68,31.23-5.16.33-9.56-2.36-11.93,3.62-1.25,3.17-1.75,12.44-5.54,12.15-1.81-.14-13.39-3.41-14.12-4.38-1.83-2.47,4.47-13.62,2.77-17.1-.46-.93-11.65-7.36-14.08-9.44-7.13-6.08-13.86-16.97-15.16-26.33-.32-2.35-1.23-6.74,1.31-7.73,1.15-.45,17.16-.15,17.97.24,1.37.66,2.16,6.89,2.83,8.83,1.92,5.58,6.79,13.15,12.69,14.86l8.93-32.63c-5.6-4.26-11.78-7.45-16.75-12.53-20.46-20.87-8.62-50.4,20.02-53.48,2.96-.31,13.22.49,14.36-.27,3.23-2.16,3.42-14.95,6.24-16.15,1.37-.58,14.65,3.04,15.53,4.21,2.25,3.04-6.09,14.3-1.49,18.86,7.62,7.56,14.43,9.87,19.6,20.78ZM1907.64,452.44c15.44-4.3,15.28-20.55,2.15-28.44-.85-.51-2.82-2.23-3.52-.98l-7.38,27.24c-1.14,4.17,6.57,2.79,8.75,2.18ZM1896.8,389.94c1.05-2.62,5.85-20.42,5.54-22.2-.75-4.32-9.48-1.57-12.03,0-6.62,4.07-8.65,12.87-4.12,19.26,2.44,3.44,8.05,9.3,10.61,2.94Z"/>
    <path class="cls-6" d="M1933.19,826.4l14.83.91c-.6,10.11-6.15,14.83-15.86,10.6-15.83-6.9-42.57-26.35-55.54-38.17-6.51-5.93-12.53-13.98-19.07-19.29-3.36-2.74-6.98-5.36-11.5-5.73l13.61,20.7c12.64,14.81,25.96,29.37,42.92,39.36-14.35,6.98-31.73,7.99-46.37,1.12-21.6-10.13-30.63-35.1-34.01-57.22-1.99-13.04-.71-27.01-7.08-38.95,5.66-.7,11.37-1.82,17.08-2.18,27.92-1.79,61.62,3.8,81.78,24.76,16.93,17.61,14.21,30.51,12.28,53.43-.28,3.29-2.84,6.09.98,8.44.75.46,5.35,2.18,5.95,2.22Z"/>
    <path class="cls-5" d="M1935.71,157.24c7.52,5.79,12.47,12.25,11.11,23.03-1.25,9.81-5.62,32.09-8.61,41.24-1.27,3.89-4.98,7.15-8.63,7.96l-151-30.88c-3.37-.77-7.29-4.57-6.96-8.47,1.33-15.76,8.74-35.21,10.9-51.33,4.17-6.68,10.25-8.07,16.76-10.36,7.46-10.98,13.61-24.25,21.23-34.94,6.65-9.31,12.62-10.86,23-9.52,19.59,2.53,51.54,9.05,70.3,14.88,24.19,7.53,15.9,37.25,21.9,58.39ZM1917.55,197.52c11.85-1.56,14.44-19.89,5.07-24.14-19.94-9.05-24.47,26.68-5.07,24.14ZM1916.52,145.42c.06-2.71-2.96-20.01-3.86-22.84-1.39-4.4-4.23-5.72-8.17-6.93-15.21-4.68-44.62-10.81-60.44-12.6-6.57-.74-7.83.41-11.83,5.81-1.83,2.47-11.36,16.82-11.82,18.72-.77,3.15,1.3,6.32,4.19,7.01,27.62,3.62,57.08,14.68,84.44,17.62,1.46.16,4.43.16,5.6-.74,1.61-1.23,1.85-4.13,1.89-6.05ZM1802.53,175.4c13.89,4.44,21.22-18.86,9.35-24.28-16.31-7.43-24.62,19.4-9.35,24.28Z"/>
    <path class="cls-7" d="M1943.49,921.41c.29,2.56,1.33,8.64.01,10.5-2.73.24-10.24,2.71-11.87.57.34-3.76-.95-7.66-1.32-11.15-.42-3.84.26-7.04-.8-10.88-.84-3.04-1.51-6.24-5.35-6.57-.87-.08-3.33,1.54-4.16,2.13-5.93,4.27-14.5,11.17-19.86,16.4-.18.18-.91-.11-1.07.1l-.46,1.28,6.11,7.53-1.27,1.73-22.24-3.24-.8-1.9,2.85-21.5,1.52-.28c1.38,1.59,2.81,3.15,4.21,4.73.34.38.09,1.13.4,1.32,2.51,1.62,5.06-1.96,6.86-3.31,5.8-4.35,12.39-10.25,18.45-14.05,5.78-3.62,9.34-4.91,16.18-2.02,7.2,3.04,10.26,8.98,11.16,16.07.5,3.93,1.01,8.66,1.45,12.54Z"/>
    <path class="cls-5" d="M1920.73,239.75l-2.89,13.86c-.78,3.74-7.51,9.05-11.03,9.3-4.63.34-9.3-1.54-12.03-5.55-.95-1.4-2.86-6.86-2.57-8.26l3.06-14.66,25.46,5.31Z"/>
    <path class="cls-7" d="M1892.46,964.22l9.07,20.88-.95,1.16-19.79,8.61-1.96-.67c.11-.43-.19-1.31-.11-1.5l3.06-7.73-29.62-11.71c-1.57-.62-5.57-5.17-6.44-6.92-1.33-2.67-1.32-4.22-1.45-6.79-.03-.63-.74-.81-.68-1.21.37-2.73,3.19-9.8,4.76-12.04.22-.32.94-.05,1.09-.2,4.69-4.92,9.92-7.89,15.2-11.85.54-.41,2.38-2.96,2.95-3.38.13-.1,2.78-1.32,2.94-1.32,2.69.01,6.87,6.39,8,8.89.02,1.59-1.12.88-1.64,1.34-3.99,3.55-8.11,6.92-12.2,10.17-1.37,1.09-5.97,3.61-6.61,4.51-1.79,2.53-2.38,6.58.65,8.46l27.47,10.86,3.69-9.32c.08-.22,2.15-.78,2.57-.24Z"/>
    <path class="cls-5" d="M1894.82,529.65l-7.17,3.45c-13.05-26.53-52.12-8.76-40.29,18.49l-.35,1-37.77,18.25c-13.88-26.14-51.49-8.02-40.39,19.38l-5.31,2.62-14.76-30.66c-4.19-8.71.53-25.84,6.29-33.17,7.62-9.67,34.75-21.92,46.79-26.85,15.38-6.31,31.61-3.96,43.03,8.45,18.61-9.33,41.22,1.14,49.93,19.04ZM1799.99,536.71l34.94-16.82c-3.59-7.55-11.09-12.66-19.4-13.15-1.6-.1-7.28.08-8.42.63l-17.25,8.3,10.13,21.04ZM1793.26,539.94l-10.12-21.03-16.35,7.87c-.78.37-5.28,5.73-5.99,6.84-4.12,6.46-4.93,15.74-1.14,22.5l33.6-16.18Z"/>
    <path class="cls-5" d="M1863.66,527.69c17.37-5.24,27.89,22.78,7.67,29.11-17.66,5.52-27.9-23.01-7.67-29.11Z"/>
    <path class="cls-8" d="M1850.9,345.73c2.94,6.78-.36,10.64-7.42,11.05l-.62-10.35c-.02-.42-1.22-3.63-1.54-4.15-1.63-2.67-3.59-.89-5.88-.7-16,1.31-25.01,3.19-37.27-8.64-14.6-14.1-18.45-37.62-17.17-57.1.27-3.98,1.05-7.97,1.55-11.92,8.32,4.47,18.07,3.59,27.17,5,15.43,2.38,32.84,8.72,39.88,23.81,4.77,10.22,4.05,22.35-.84,32.35-6.95-11.84-17.1-21.16-27.41-30l-14.42-9.52c.24,3.15,2.07,5.68,3.97,8.03,3.7,4.57,9.31,8.78,13.44,13.33,8.23,9.07,21.76,27.75,26.56,38.81Z"/>
    <path class="cls-1" d="M1820.56,391.59c19.13,33.88-5.32,76.4-42.95,81.04-8.21,1.01-19.57-2.37-26.01,3.72-1.04.98-.6,2.45-1.4,3.55-1.76,2.42-3.98,2.55-6.72,2.3l-.6.59c1.49,4.11-2.41,7.61-6.68,6.72-1.16-.24-2.45-1.37-3.11-1.39-.6,0-4.31,2.11-5.71,2.55-19.25,5.97-38.57-19.11-25.47-35.52-5.12-4.32-2.38-13.06,4.53-10.76l.63-.59c-.95-3.36,1.08-6.39,4.36-7.3,1.82-.51,2.7.92,4.26-1.19,4.92-6.67,2.56-13.39,3.38-20.88,5.53-51,75.37-69.11,101.49-22.84ZM1774.41,465.95c37.64-2.7,60.47-48.9,34.87-78.47-28.38-32.8-81.43-10.43-83.66,31.34-.19,3.64.86,7.72.05,11.31-.82,3.61-3.71,8.31-5.77,11.34l12.27,12.94,21.18-20.08c-.01-2.49-3-4.04-4.47-6-6.69-8.96-5.73-23.24,2.57-30.7l6.34,6.69c4.99,5.26,4.1,17.38,1.33,23.51-.39.87-1.4.84-.02,1.86,11.43-11.52,31.22-10.22,41.4,2.54-4.09,3.67-8.28,7.48-13.41,9.58-9.47,3.86-19.9,2.23-28.18-3.75l-22.24,21.1,10.43,11c4.19-1.34,7.86-3.84,12.25-4.67,4.5-.85,10.19.81,15.06.46ZM1727.78,482.33l-20.86-22c-8.08,12.23,8.27,30.2,20.86,22Z"/>
    <path class="cls-8" d="M1812.6,844.48c7.95,13.78,2.9,25.9-8.4,35.34-2.99,2.5-6.87,2.82-5.64,7.52.64,2.49,4.47,8.36,2.04,9.86-1.17.73-9.67,3.9-10.55,3.63-2.21-.69-3.34-10.28-5.93-11.64-.69-.36-10.37.71-12.77.53-7.05-.52-16-4.15-20.95-9.27-1.25-1.28-3.75-3.55-2.65-5.28.5-.79,10.37-7.74,11.04-7.86,1.13-.21,4.39,3.23,5.65,4.11,3.66,2.54,10,4.98,14.35,3.39l-9.1-23.84c-5.31-.09-10.49.72-15.78-.16-21.74-3.58-27.7-26.82-11.64-41.45,1.66-1.51,8.26-5.6,8.61-6.56,1-2.76-4.58-10.62-3.39-12.61.57-.96,10.26-4.68,11.32-4.36,2.72.84,2.67,11.41,7.49,12.14,8.01,1.21,13.18-.43,21.19,3.91,2.37,1.28,10.14,7.04,9.3,9.84-.29.96-10.16,7.38-11.23,7.44-1.9-.96-3.07-2.9-4.94-4.25-1.27-.93-7.06-4.02-8.32-3.91-2.18.19-1.9,2.64-1.49,4.22,1.53,5.88,5.16,12.5,7.26,18.31,1.69,2.12,8.45.64,11.19.61,8.32-.06,18.85,2.57,23.34,10.34ZM1797.88,866.63c7.48-9.49.14-19.3-11.37-18.26-.74.07-2.71-.1-2.58.97l7.65,19.87c1.17,3.04,5.24-1.24,6.3-2.58ZM1755.67,836.37c3.02,1.01,9.04,2.08,7.77-2.93-.53-2.07-5.54-15.03-6.52-15.98-2.38-2.29-6.47,3.27-7.32,5.36-2.22,5.42.47,11.68,6.07,13.55Z"/>
    <path class="cls-5" d="M1805.05,215.64l-3.21,15.45c-.07.29-3.15,4.09-3.66,4.56-7.19,6.73-19.33,2.27-20.88-7.84-.1-.65-.32-4.93-.27-5.2l2.56-12.28,25.46,5.31Z"/>
    <path class="cls-5" d="M1785.47,565.88c15.45-4.65,26.34,18.11,12.02,27.1-19.52,12.23-34.52-20.34-12.02-27.1Z"/>
    <path class="cls-7" d="M1785.68,688.61c2.38,11.77-5.35,24.53-15.98,28.87l-89.46,25.3c-13.59,1.88-25.38-5.85-30.01-19.09-2.1-6.01-7.35-23.1-7.46-28.77-.22-11.77,13.7-18.6,22.73-11.19.8.66,3.93,4.04,4.14,4.77l7.1,25.12,80.66-22.82-7.22-25.54c-.56-1.98,1.87-7.96,3.16-9.68,5.84-7.78,19.88-6.88,23.7,2.54,2.85,7.02,7.11,22.88,8.64,30.49Z"/>
    <path class="cls-7" d="M1768.58,735.87c.24,7.16-8.94,10.27-12.91,4.21-1.98-3.02-3.59-9.18-3.04-12.69l11.7-3.31c.33.21.83.34,1.07.63.74.87,3.13,9.68,3.18,11.16Z"/>
    <path class="cls-7" d="M1759.23,644.61l-.14,1c-10.29,3.7-15.56,13.62-12.95,24.5.99,4.15,3,8.04,3.96,12.35.37,1.68.3,3.41.95,5.04l-70.42,19.92-.81-.47-5.83-20.61c-.3-1.05-3.41-4.7-4.39-5.62-4.94-4.66-11.95-6.27-18.31-4.41-1.86-12.05-14.29-30.12.92-37.38l88.49-24.8c15.14.49,14.07,19.65,18.53,30.48Z"/>
    <path class="cls-6" d="M1741.1,311.75c12.13-2,19.11,11.82,10.94,20.7l-123.7,119.97c-8.54,6.89-19.94,1.29-20.5-9.4,8.79-27.69,14.8-57.83,24.41-85.16,1.54-4.37,3.19-8.8,6.27-12.41-3.48-4.61-3.28-2.71-7.01-1.86-29.05,6.61-30.34-37.64-3.43-35.09,4.95.47,16.76,5.83,11.38,11.78-3.93,4.36-7.69-2.08-11.88-2.68-11.72-1.68-13.83,17.22-1.37,17.63,4.13.14,5.19-2.45,8.03-3.61,4.33-1.77,8.01,5.11,10.94,7.37,3.7-2.96,8.17-4.49,12.59-5.89,26.88-8.48,56.2-13.26,83.33-21.35ZM1746.32,324.75c.59-2.76-1.58-4.69-4.27-3.93-26.61,8.19-55.48,12.74-81.88,21.13-4.29,1.36-7.41,2.5-10.96,5.5-4.96,4.2-6.7,8.58-8.69,14.52-8.77,26.16-14.46,53.52-23.12,79.75-.85,2.67,1.03,4.9,3.79,4.38l125.13-121.35Z"/>
    <path class="cls-8" d="M1712.08,579.74c.61,7.24-7.03,12.34-13.12,8.89-.43-.24-3.19-2.35-3.28-2.54l-4.8-10.13,16.7-7.91,3.82,8.05c.08.18.64,3.17.68,3.64Z"/>
    <path class="cls-8" d="M1709.72,552.76c.88,2.64-1.19,5.92-3.4,7.01l-99.13,46.49c-2.65.05-5.76-1.59-7.29-4.06-3.58-5.82-10.32-20.48-12.81-27.05-2.74-7.21-.4-12.5,3.83-17.75.62-15.6-10.06-34.74,5.4-43.97,11.98-7.16,32.95-16.99,46.06-22,6.95-2.65,11.33-2.58,17.47,2.75,7.05,6.11,13.51,14.25,20.49,20.59,4.87.49,9.31.44,13.3,4.36,4.17,10.77,12.53,22.97,16.08,33.63ZM1685.92,547.74c9.73-5.91-.47-23.05-10.5-15.2-7.3,5.72,1.65,20.59,10.5,15.2ZM1663.89,523.24c1.88-.96,2.78-3.49,1.72-5.54-.64-1.24-9.61-9.56-11.28-10.96-3.66-3.06-4.72-3.65-9.14-2.04-10.62,3.87-29.91,13.01-39.64,18.77-2.52,1.5-4.26,2.88-4.49,6.15-.14,2.11.65,14.55,1.14,16.42.35,1.32,1,3.28,2.31,3.86.96.43,3.01-.07,4-.42,18.4-6.59,36.9-19.14,55.38-26.24ZM1610.17,582.19c13.82-1.48,4.74-25.4-7.52-15.83-5.76,4.5-.92,16.73,7.52,15.83Z"/>
    <path class="cls-1" d="M1706.63,231.66c.62,2.12-1.47,6.71-3.38,7.41l-25.63,9.45-10.99-29.84c-.03-.08-1.03-.56-1.3-.59-1.12-.09-18.01,6.14-18.8,6.93-.18.19-.63,1.2-.6,1.28l10.99,29.84-26.11,9.62c-2.26.35-6.17-1.91-7.08-4.11l-11.57-31.61,28.12-50.45,54.47,20.03,11.88,32.04Z"/>
    <path class="cls-1" d="M1703.81,184.69c2.07,1.01,2.82,1.87,2.3,4.21-.71,3.25-3.78,9.9-7.98,7.22l-59.57-22.23-1.49,1.51-30.64,55.71c-1.93,3.19-10.45-1.65-11.32-3.7-.48-1.13,1.74-4.9,2.44-6.24,9.62-18.53,21.09-40.63,31.99-58.21,1.4-2.27,2.58-4.94,5.75-3.99l28.79,10.75-3.89-10.58c-.04-.11.86-1.92,1.12-2.21,1.4-1.52,10.22-4.88,12.01-3.81,2.6,1.55,7.2,20.44,9.78,24.01l20.71,7.56Z"/>
    <path class="cls-7" d="M1704.18,754.77c.1.37-.76,2.8-1.07,3.34-2.34,4.11-8.44,4.58-11.46.85-1.35-1.66-3.79-9.37-3.99-11.56-.04-.5.3-1.72.61-1.81l11.7-3.31.81.47,3.4,12.02Z"/>
    <path class="cls-1" d="M1687.77,899.5c4.27,11.52-7.96,21.01-18.23,14.68l-141.37-98.54c-8.4-7.07-5.07-19.33,5.31-21.91,28.87,3.34,59.6,3.49,88.26,7.71,4.59.68,9.25,1.45,13.38,3.79,3.86-4.3,2.03-3.74.49-7.23-12.03-27.26,31.16-36.97,33.78-10.07.49,4.95-2.52,17.56-9.39,13.42-5.03-3.03.57-7.95.36-12.18-.58-11.82-19.53-10.29-17.56,2.02.65,4.08,3.4,4.63,5.08,7.2,2.56,3.91-3.49,8.83-5.15,12.14,3.61,3.07,5.97,7.17,8.18,11.24,13.45,24.77,23.74,52.64,36.86,77.73ZM1676,907.1c2.82.05,4.3-2.45,3.04-4.95-13.11-24.55-23.08-52.02-36.35-76.34-2.16-3.94-3.87-6.79-7.5-9.7-5.07-4.07-9.7-4.95-15.91-5.77-27.35-3.62-55.29-3.98-82.69-7.48-2.79-.32-4.62,1.94-3.58,4.56l142.99,99.68Z"/>
    <path class="cls-8" d="M1636.27,613.59c.43.92.02,5.01-.4,6.13-1.21,3.22-4.13,5.3-7.38,5.84-2.48.41-8.01-2.13-9.17-4.58l-4.3-9.1,16.7-7.91,4.55,9.62Z"/>
    <path class="cls-8" d="M1608.14,681.88c4.51-1.15,5.9,4.55,2.46,7.08,7.69,11.09-5.68,26.22-17.74,21.51-.87-.34-3.16-1.87-3.54-1.89-.42-.02-1.29.65-2.04.75-2.76.37-5.11-2.05-3.99-4.6l-.36-.41c-1.76.03-3.17-.15-4.19-1.78-.47-.74-.13-1.65-.75-2.33-3.87-4.19-11.26-2.55-16.46-3.58-23.85-4.7-37.71-32.98-24.1-53.74,18.59-28.35,62.45-13.57,63.88,19.27.21,4.82-1.57,9,1.3,13.49.91,1.42,1.53.55,2.67.95,2.06.74,3.23,2.77,2.48,4.87l.38.41ZM1592.95,705.13c7.71,5.81,18.89-4.91,14.23-13.09l-14.23,13.09ZM1591.3,687.09l8.37-7.7c-1.19-2.03-2.85-5.16-3.22-7.51-.37-2.33.47-4.89.5-7.22.29-26.79-32.67-43.52-52.15-23.88-17.56,17.71-4.88,48.27,19.05,51.73,3.09.45,6.79-.35,9.63.4,2.77.73,5.02,2.5,7.63,3.55l7.12-6.55-13.34-14.49c-5.53,3.43-12.26,3.99-18.15,1.08-3.19-1.57-5.71-4.2-8.17-6.73,7.03-7.68,19.72-7.6,26.55.29.92-.59.27-.62.06-1.19-1.51-4.05-1.59-11.83,1.82-14.96l4.32-3.98c5,5.15,5.02,14.32.38,19.73-1.02,1.19-2.99,2.03-3.1,3.63l12.7,13.8Z"/>
    <path class="cls-5" d="M1592.71,738.38c2.73,6.39.76,10.99-6.49,11.36-11.82.61-34.18-3.15-45.75-6.44-5.82-1.65-11.97-4.75-17.61-6.01-2.89-.65-5.92-1.16-8.8,0l14.68,8.54c12.28,5.22,24.91,10.09,38.37,11.04-6.67,8.67-17.02,14.6-28.11,14.86-16.35.39-29.53-12.17-38.37-24.72-5.21-7.39-8.69-16.36-16.26-21.73,3.26-2.17,6.43-4.6,9.82-6.57,16.59-9.63,38.98-16.51,57.76-9.8,15.77,5.62,18.05,14.38,23.87,29.03.84,2.1.12,4.6,3.19,4.88.6.05,3.95-.3,4.32-.46l9.38-3.98Z"/>
    <path class="cls-7" d="M1584.73,449.12c-.73,2.4-2.41,1.05-3.49,1.12-.41.02-1.4.69-1.71.68-.53-.01-1.08-.66-1.43-.59-.28.06-.57,1.37-1.41.59l-.21.35c1.03.57.2,2.13.19,3.2-.04,5.17.05,11.27-.12,16.63-.06,2.05.39,1.19-.29,3.64-.11.41.6.52.29,1.25-.48,1.17-2.51,4.63-3.29,5.63-.49.64-.98.07-1.23.34-.44.48-.58,1.23-1.01,1.72-.14.16-3.64,1.34-4.08,1.43-1.66.34-4.65.43-6.3.07-3.27-.72-16.21-8.15-19.15-10.41-.55-.43-1.09-.83-1.03-1.63.08-1.1,3.21-6.43,4.37-6.47,2.26-.07,13.16,7.8,16.51,9.16.88.36,2.76.39,3.62,0,.56-.26.6-1.4,1.8-1.12l.58-.99c.07-.28-.41-.55-.39-.73.73-6.44.26-13.49.15-19.89-.01-.53.53-1.73.32-2.6h-6.12s-1.93-.73-1.93-.73c.6-.79.96-2.04,1.6-2.72.22-.23.73.08.83.01.86-.62,4.11-4.46,5.31-5.65.93-.92,3.41-4.23,4.57-4.17l1.38.57c3.82,3.81,7.37,8.11,11.67,11.31Z"/>
    <path class="cls-7" d="M1569.72,400.89c5,3.08,6.6,7.84,6.45,13.21-.07,2.97-.23,6.55-.35,9.48-.08,1.94,0,6.57-1.19,7.8-2.06-.13-7.92.85-8.88-.93.67-2.75.16-5.8.28-8.43.13-2.9,1.01-5.2.66-8.18-.28-2.35-.42-4.81-3.23-5.49-.64-.16-2.65.76-3.33,1.11-4.9,2.49-12.05,6.65-16.63,9.92-.16.11-.66-.19-.81-.05l-.49.9,3.68,6.29-1.14,1.14-16.15-4.94-.38-1.5,4.57-15.65,1.16-.04c.84,1.34,1.73,2.66,2.59,3.99.21.32-.06.85.14,1.03,1.69,1.49,3.99-.88,5.48-1.68,4.8-2.56,10.37-6.2,15.31-8.33,4.71-2.03,7.5-2.58,12.26.35Z"/>
    <path class="cls-1" d="M1555.06,542.12c1.01,2.34,3.41,11.16,1.15,12.74-.78.55-11.86-.47-12.69-1.05-.84-1.82-.58-3.95-1.18-6.04-.4-1.43-2.88-7.11-3.89-7.77-1.73-1.13-2.95.84-3.58,2.26-2.3,5.26-3.47,12.3-5.31,17.83,0,2.57,5.89,5.42,7.94,7.01,6.21,4.82,12.49,12.94,11.27,21.33-2.16,14.88-13,20.92-26.91,21.31-3.69.11-6.75-1.92-8.59,2.28-.98,2.23-1.57,8.82-4.26,8.52-1.29-.15-9.45-2.77-9.94-3.49-1.25-1.8,3.53-9.58,2.4-12.1-.3-.68-8.11-5.54-9.79-7.08-4.92-4.52-9.44-12.45-10.12-19.14-.18-1.68-.71-4.83,1.12-5.47.83-.3,12.23.33,12.79.62.97.51,1.37,4.97,1.8,6.36,1.23,4.02,4.5,9.55,8.66,10.91l7.19-23.01c-3.88-3.18-8.2-5.61-11.62-9.35-14.04-15.38-4.86-36.12,15.62-37.58,2.12-.16,9.41.68,10.24.17,2.35-1.46,2.81-10.56,4.85-11.35.99-.38,10.36,2.54,10.95,3.39,1.53,2.22-4.69,10.04-1.54,13.4,5.24,5.58,10.03,7.39,13.44,15.3ZM1524.88,596.25c11.11-2.67,11.4-14.24,2.25-20.19-.59-.39-1.95-1.67-2.48-.8l-5.95,19.22c-.91,2.94,4.61,2.15,6.18,1.77ZM1518.75,551.47c.81-1.84,4.68-14.4,4.5-15.68-.42-3.09-6.71-1.36-8.56-.31-4.82,2.73-6.49,8.96-3.42,13.62,1.65,2.51,5.49,6.83,7.48,2.37Z"/>
    <path class="cls-7" d="M1533.02,449.56l4.36,16.55-.84.76-15.69,4.14-1.37-.73c.13-.3,0-.99.08-1.12l3.15-5.39-20.66-12.08c-1.1-.64-3.55-4.48-4-5.88-.69-2.14-.49-3.29-.3-5.21.05-.47-.46-.68-.37-.98.59-1.99,3.49-6.91,4.91-8.4.2-.21.7.07.83-.03,4.05-3.11,8.27-4.73,12.65-7.07.45-.24,2.1-1.92,2.58-2.17.1-.06,2.21-.66,2.33-.64,2,.31,4.38,5.53,4.93,7.51-.16,1.18-.93.53-1.37.81-3.37,2.19-6.82,4.22-10.22,6.17-1.14.65-4.85,1.99-5.43,2.59-1.62,1.68-2.52,4.62-.49,6.36l19.18,11.21,3.8-6.51c.09-.15,1.69-.34,1.94.11Z"/>
    <path class="cls-6" d="M1484.65,667.13c.17,1.43.12,5.98-.08,7.39-.13.9-.89.59-1.01,1.05-.77,2.78-.71,1.68-1.84,3.7-2.97,5.31-6.6,11.19-9.58,16.24-.61,1.04-.71,3.04-2.04,2.99v.47c1.27-.27.78,1.17,1.03,1.4.29.27,1.2-.05,1.73.25.3.18.87,1.4,1.26,1.67,1.01.68,3.43.35,2.74,3.11-6.05.61-12,2.72-17.93,4.2l-1.67-.25c-1.17-.61-1.65-5.28-2.02-6.72-.47-1.85-1.39-7.48-1.87-8.58-.05-.13-.73-.12-.81-.47-.23-1.04.16-2.46.04-3.58l2.3.4,5.94,3.58c.71-.72.89-2.21,1.2-2.71,3.84-6.16,8.4-12.73,11.44-19.43.08-.18.72-.17.81-.48l.02-1.29c-1.34-.43-.72-1.57-1.11-2.14-.61-.88-2.45-1.95-3.52-2.12-4.05-.62-19.23.68-21.38-.71-1.1-.72-1.03-7.72-.47-8.83.4-.81,1.16-.89,1.94-.98,4.18-.49,21.08-.17,24.68,1.04,1.81.6,4.67,2.43,6.08,3.73.38.35,3.09,3.53,3.13,3.77.14.72-.16,1.54,0,2.26.08.4.89.13,1,1.04Z"/>
    <path class="cls-5" d="M1464.56,518.49c.18,6.43-6.38,10.33-11.82,6.61l-79.81-65.9c-5.32-4.92-1.8-13.53,5.55-12.91,16.64,3.54,34.42,5,50.92,8.79,2.71.62,5.46,1.32,7.82,2.92,1.65-1.5,3.52-5.79,6.19-4.94,1.76.56,2.52,2.06,4.99,1.78,7.44-.85,5.27-12.06-1.67-10.49-2.48.56-4.42,4.59-6.98,2.17-3.51-3.3,3.3-7.08,6.24-7.59,15.99-2.82,17.34,23.73-.37,21.17-2.27-.33-2.24-1.48-4.1,1.45,2.01,2.01,3.21,4.58,4.34,7.12,7.07,15.91,12.11,33.66,18.7,49.82ZM1456.71,520.98c1.69.17,2.7-1.25,2.07-2.81-6.45-15.29-11.16-31.4-17.67-46.64-1.48-3.46-2.73-5.99-5.9-8.27-2.27-1.63-4.19-2.16-6.82-2.77-16.21-3.76-33.71-5.1-50.04-8.73-1.64-.32-2.85.94-2.36,2.56l80.72,66.66Z"/>
    <path class="cls-6" d="M1456.71,716.76c.44,1.89-2.33,6.35-3.38,8.28-1.6,2.92-3.53,6.48-5.18,9.41-2.99,5.31-7.32,9.01-13.98,9.09-6.32.07-8.71-2.09-12.11-6.81-3.56-4.94-6.85-11.72-10.02-17.01-.99-1.64-1.85-5.29-4.35-4.82-.31.05-.35.72-.74.91-1.61.8-3.24,1.56-4.85,2.38l-1.1-.72,4.67-17.87,1.24-1.24,18.58,4.61.45,1.77-7.24,3.97-.05,1.16c.06.22.73.22.81.42,2.55,5.85,7.08,14.05,10.39,19.33.46.73,1.88,2.8,2.59,3.02,3.13.97,4.7-1.34,6.34-3.46,2.07-2.69,2.56-5.43,4.12-8.33,1.42-2.63,3.69-5.29,4.64-8.36,1.97-1.16,7.09,3.2,9.17,4.27Z"/>
    <path class="cls-7" d="M1446.62,592.38c.63,1.22,2.65,4.63,2.21,5.65-.79,1.86-8.5,6.24-10.24,3.35l-27.73-50.41-1.35-1.37-53.92,20.12c-3.8,2.42-6.57-3.59-7.22-6.54-.47-2.12.22-2.9,2.09-3.81l18.74-6.84c2.34-3.23,6.49-20.32,8.85-21.73,1.62-.97,9.6,2.07,10.87,3.45.24.26,1.05,1.9,1.01,2l-3.52,9.57,26.05-9.72c2.87-.86,3.94,1.55,5.21,3.61,9.86,15.9,20.24,35.91,28.95,52.67Z"/>
    <path class="cls-6" d="M1440.36,660.08l.38,1.23-13.88,13.54c-.5.29-1.95-.82-1.95-1.01l.1-8.55-25.17-.27c-2.99.5-3.83,3.89-3.23,6.46.21.92,3.03,4.38,3.76,5.68,2.18,3.88,4.34,7.86,6.35,11.95.26.53,1.39.34.86,1.59-1.7,1.6-7.05,5.29-9.17,4.43-.13-.05-1.83-1.87-1.9-1.98-.31-.52-.94-3.12-1.24-3.62-2.88-4.82-6.05-8.85-8.17-14.24-.07-.17-.72-.18-.79-.51-.51-2.27-.46-8.75.12-11.03.09-.33.7-.24.93-.73.93-1.98,1.41-3.21,3.33-4.89,1.25-1.09,5.87-3.4,7.31-3.38l27.12.29.08-7.07c0-.18.52-.78.57-1.15l1.76.1,12.83,13.16Z"/>
    <path class="cls-7" d="M1407.95,554.76l25.45,45.66-10.48,28.6c-.82,2-4.35,4.04-6.4,3.72l-23.63-8.7,9.95-27.01c.03-.07-.38-.99-.55-1.16-.71-.72-16-6.35-17.01-6.27-.24.02-1.15.46-1.17.53l-9.95,27.01-23.2-8.55c-1.73-.64-3.61-4.79-3.06-6.71l10.75-28.99,49.3-18.13Z"/>
    <path class="cls-8" d="M1363.37,669.55c2.34,10.48-.83,21.6-7.43,29.89-4.02-12.43-11.53-23.17-19.3-33.5l-11.45-11.81c-.42,2.98.76,5.7,2.05,8.28,2.5,5,6.84,10.06,9.75,15.14,5.78,10.12,14.52,30.25,16.71,41.51,1.33,6.9-2.53,9.82-9.17,8.75l1.56-9.75c.06-.39-.39-3.62-.58-4.17-.97-2.82-3.16-1.56-5.33-1.86-15.13-2.06-23.89-2.16-32.85-15.68-10.67-16.09-9.43-38.74-4.23-56.57,1.06-3.65,2.61-7.19,3.89-10.76,6.81,5.86,16.05,7.04,24.21,10.22,13.85,5.39,28.73,14.85,32.17,30.31Z"/>
    <path class="cls-6" d="M1291.78,524.66c34.64,6.06,38.57,53.92,7.88,68.77-4.51,2.18-9.22,2.2-12.32,6.77-.98,1.45.11,1.69.19,2.94.14,2.27-1.31,4.21-3.62,4.36l-.23.53c2.95,3.83-1.92,7.49-5.74,5.25-7.4,11.88-27.3,5.35-27.77-8.06-.04-.97.48-3.78.34-4.15-.16-.41-1.14-.96-1.55-1.64-1.48-2.47-.15-5.71,2.75-5.69l.23-.5c-.75-1.67-1.15-3.09-.02-4.73.51-.75,1.52-.8,1.91-1.67,2.4-5.41-2.19-11.77-3.35-17.15-5.32-24.64,15.93-49.47,41.3-45.03ZM1297.53,566.88l5.56,2.49c-2.85,6.87-11.57,10.65-18.64,8.45-1.54-.48-3.16-2.01-4.72-1.46l-7.94,17.77,10.78,4.81c1.44-1.97,3.75-4.83,5.83-6.15,2.07-1.31,4.85-1.56,7.08-2.49,25.64-10.73,28.04-48.99,1.33-59.48-24.08-9.46-47.99,15.17-41.46,39.39.85,3.13,3.13,6.33,3.58,9.34.44,2.94-.32,5.8-.24,8.73l9.15,4.08,8.34-18.66c-5.55-3.85-8.84-10.04-8.5-16.84.19-3.69,1.66-7.16,3.07-10.55,10.2,3.54,15.33,15.67,10.62,25.41.94.64.7.01,1.16-.43,3.23-3.1,10.61-6.37,15-4.41ZM1273.61,611.29l-18.32-8.18c-2.37,9.73,12.44,15.98,18.32,8.18Z"/>
  </g>
</svg>