<svg width="162" height="43" viewBox="0 0 162 43" fill="none" xmlns="http://www.w3.org/2000/svg">
<g clip-path="url(#clip0_4868_168)">
<path d="M81.9433 26.2819C81.9433 30.117 80.6017 32.4112 77.9582 34.7097C75.3669 36.959 71.3536 37.6927 67.6045 37.6927C65.662 37.6927 63.8516 37.3789 62.1696 36.7515C62.0532 36.7105 61.9373 36.6657 61.8253 36.6209C61.697 36.5678 61.5691 36.5147 61.4408 36.4577C61.3168 36.4046 61.1966 36.3476 61.0721 36.2867L60.9362 36.4699L59.9829 37.7619L59.4183 38.5238C59.234 38.7806 58.8457 38.7114 58.7533 38.4098L58.5809 37.7619L55.7732 27.0317C55.7133 26.791 55.8852 26.5591 56.1299 26.547L60.928 26.433L67.6931 26.2741C68.0014 26.2741 68.1819 26.6371 67.9933 26.8934L65.7822 29.8929C65.9263 29.9217 66.0666 29.9499 66.2188 29.9743H66.2227C66.327 29.9904 66.4348 30.0069 66.543 30.0191C66.587 30.023 66.6311 30.0313 66.679 30.0313C68.4692 30.2271 70.44 29.6888 71.3291 27.953C71.8099 27.0156 71.8338 25.8255 71.3052 24.913C70.2317 23.0627 67.5442 22.195 65.7419 21.4613C64.0781 20.7841 62.6905 20.1069 62.0393 19.6587C61.8492 19.5282 61.7367 19.3089 61.7367 19.0751V18.812C61.7367 15.336 62.4937 12.8703 63.9919 11.4804C64.2409 11.2485 64.5138 11.0434 64.8102 10.8656C65.2076 10.6278 65.7132 10.7574 65.9699 11.1472C67.2085 13.0262 71.2889 15.222 72.439 15.6819C74.846 16.6436 77.5096 17.7197 79.4243 19.5574C79.6326 19.7532 79.8251 19.9608 80.0013 20.1849C81.2912 21.8393 81.9438 23.8894 81.9438 26.2815L81.9433 26.2819Z" fill="#DF3F42"/>
<path d="M81.2682 12.6496C81.3041 12.8981 81.1002 13.1144 80.8555 13.094L69.7529 11.9934C69.4364 11.9647 69.2923 11.5779 69.5126 11.3416L71.4632 9.25497C71.6073 9.08787 71.5834 8.83941 71.4273 8.70495L71.4393 8.69277C66.86 6.36112 61.4739 9.72169 60.3353 14.5058C59.9896 15.9586 59.8478 17.4435 59.8478 18.9382V19.4638C59.844 19.476 59.844 19.4926 59.844 19.5048C59.8359 20.483 59.8158 21.4652 59.8201 22.3085C59.8239 22.9033 59.8282 23.7959 59.832 24.55C59.8359 24.7619 59.6678 24.9329 59.4634 24.9373L54.5407 25.0557L54.004 25.0679C53.7598 25.0801 53.5836 25.3125 53.6516 25.557L53.7876 26.0788L56.5393 36.5848C56.6034 36.8333 56.4229 37.074 56.1706 37.074H52.5537C52.1582 37.074 51.8374 36.7476 51.8374 36.3451V1.54923C51.8374 1.13708 52.1659 0.802874 52.5709 0.802874C52.5709 0.802874 59.0099 0.802874 59.0185 0.802874C59.8 0.802874 59.8292 1.55508 59.879 2.1436C59.8876 2.24639 59.9024 2.36137 59.9824 2.4247C60.1026 2.5197 60.2745 2.4359 60.4018 2.35162C61.6486 1.52585 62.7992 0.816028 64.261 0.45795C65.7697 0.0881797 67.3373 0.00389745 68.8839 0H68.9078C71.8544 0 74.3906 1.17411 76.8124 2.77255C76.9551 2.86657 77.1174 2.96498 77.2845 2.93137C77.4373 2.90067 77.5469 2.76767 77.6427 2.64247C78.0904 2.05736 78.4619 1.34218 78.9613 0.806284C79.1816 0.570001 79.5704 0.696181 79.6144 1.01821L81.2687 12.6492L81.2682 12.6496Z" fill="#DF3F42"/>
</g>
<path d="M45.8406 28.0181H31.6266C31.9425 30.6566 33.4271 32.0573 35.9224 32.0573C37.1859 32.0573 38.2914 31.6339 39.1126 30.8521C39.5864 30.396 39.8075 30.0377 40.0602 29.1908L45.5563 30.7869C44.8298 32.4808 44.356 33.23 43.4716 34.1421C41.6711 35.9663 39.1442 36.9109 36.0172 36.9109C32.9217 36.9109 30.4895 35.9988 28.6891 34.1421C26.8255 32.1876 25.8147 29.4188 25.8147 26.1939C25.8147 19.7442 29.8262 15.4769 35.8592 15.4769C40.7867 15.4769 44.2297 18.2458 45.3352 23.0993C45.5879 24.1417 45.7142 25.5099 45.809 27.3666C45.809 27.4969 45.809 27.6923 45.8406 28.0181ZM31.7214 23.5228H39.8391C39.3969 21.4381 38.0387 20.3305 35.8592 20.3305C33.6166 20.3305 32.2584 21.3729 31.7214 23.5228Z" fill="#DF3F42"/>
<path d="M23.3425 36.1291H15.9512C15.7617 35.0868 15.3827 33.7512 14.4035 31.0475C13.3927 28.2135 13.0137 27.4643 12.224 26.7477C11.5607 26.1288 10.771 25.8682 9.76024 25.8682H6.53842V31.2104C6.53842 33.4255 6.60159 34.6307 6.79111 36.1291H0C0.189519 34.6307 0.252692 33.6535 0.252692 31.243V13.7179C0.252692 11.6983 0.189519 10.493 0 8.92947C1.38981 8.99462 2.55851 9.02719 4.7064 9.02719H12.9189C18.0359 9.02719 21.0051 11.7634 21.0051 16.4542C21.0051 18.767 20.3733 20.5911 19.1415 21.7964C18.3518 22.5456 17.6885 22.9039 16.1407 23.4251C17.7516 23.9463 18.4781 24.6955 19.4889 27.0083C19.9627 28.0507 20.4049 29.1582 21.8263 32.6762C22.1738 33.5883 22.5528 34.4027 23.3425 36.1291ZM6.53842 20.2979H11.4659C13.3295 20.2979 14.4666 19.1253 14.4666 17.2685C14.4666 15.4444 13.4559 14.4997 11.4975 14.4997H6.53842V20.2979Z" fill="#DF3F42"/>
<path d="M146.586 42.0251H140.111C140.269 40.6244 140.363 38.9957 140.363 37.2692V21.3729C140.363 19.2556 140.3 17.92 140.111 16.2587H146.333V17.3662C146.333 17.5617 146.302 17.8223 146.302 17.9852C148.197 16.3564 150.155 15.6724 152.777 15.6724C155.556 15.6724 157.831 16.5193 159.473 18.1806C161.147 19.9071 162 22.4804 162 25.7705C162 29.093 161.052 31.7967 159.252 33.6535C157.641 35.3148 155.335 36.2269 152.745 36.2269C151.261 36.2269 149.65 35.9011 148.481 35.3799C147.66 35.0216 147.186 34.6633 146.302 33.8815C146.302 34.1747 146.302 34.5981 146.333 35.0542V37.3018C146.333 39.126 146.396 40.6244 146.586 42.0251ZM151.355 31.3081C152.556 31.3081 153.63 30.8846 154.451 30.0703C155.335 29.1908 155.841 27.6923 155.841 25.8356C155.841 22.513 154.135 20.5911 151.166 20.5911C148.544 20.5911 146.396 22.9691 146.396 25.9333C146.396 28.9953 148.513 31.3081 151.355 31.3081Z" fill="#DF3F42"/>
<path d="M129.682 23.2622V22.513C129.682 20.9494 128.766 20.2328 126.681 20.2328C124.659 20.2328 123.585 20.9169 123.112 22.513L117.079 21.5032C117.71 19.5813 118.405 18.5389 119.732 17.5617C121.437 16.3239 123.775 15.705 126.839 15.705C129.176 15.705 131.45 16.161 132.682 16.8451C134.704 17.9852 135.588 19.7768 135.588 22.7085V31.5036C135.588 33.4906 135.651 34.6633 135.809 36.1291H129.682V34.6307C127.913 36.0314 126.144 36.5852 123.554 36.5852C121.153 36.5852 119.353 35.9988 118.089 34.7936C116.952 33.7186 116.352 32.1551 116.352 30.3635C116.352 28.3113 117.142 26.6825 118.658 25.6076C120.269 24.4349 122.385 23.7508 125.228 23.4902C126.46 23.36 127.407 23.3274 129.682 23.2622ZM129.682 28.3438V27.4318C126.87 27.4969 125.512 27.6598 124.217 28.0832C123.08 28.4741 122.385 29.2885 122.385 30.2332C122.385 31.4058 123.333 32.0899 124.975 32.0899C126.27 32.0899 127.692 31.6013 128.544 30.8521C129.271 30.2006 129.682 29.3211 129.682 28.3438Z" fill="#DF3F42"/>
<path d="M108.31 36.1291H102.941C102.783 35.1845 102.53 34.2072 101.961 32.3179L100.035 25.803C99.8767 25.2493 99.7503 24.8258 99.6871 24.5326C99.466 25.2818 99.466 25.347 99.3081 25.803L97.3813 32.3179C96.9391 33.7512 96.5285 35.3473 96.4021 36.1291H91.0324C90.8113 34.9564 90.5902 34.0769 90.0848 32.3179L86.5471 20.4934C86.1997 19.3533 85.7259 17.92 85.1257 16.2587H91.9168C91.98 17.3988 92.1695 18.5715 92.517 20.1025L93.8752 25.9333C94.0331 26.7151 94.1595 27.2363 94.1911 27.4969C94.5701 26.2265 94.5701 26.2265 94.6333 25.9333L96.4021 20.0048C97.255 16.9428 97.255 16.9428 97.3813 16.2587H101.993C102.088 16.9102 102.467 18.4738 102.941 20.0048L104.773 26.1614C104.836 26.3894 105.025 27.106 105.152 27.4969C105.246 27.0083 105.246 27.0083 105.436 26.1288L106.763 20.3631C107.142 18.6692 107.363 17.3011 107.426 16.2587H114.217C113.743 17.4965 113.269 18.9624 112.796 20.4934L109.258 32.3179C108.689 34.2072 108.5 35.0216 108.31 36.1291Z" fill="#DF3F42"/>
<defs>
<clipPath id="clip0_4868_168">
<rect width="30.1059" height="38.6822" fill="white" transform="translate(51.8374)"/>
</clipPath>
</defs>
</svg>
