<svg width="117" height="100" viewBox="0 0 117 100" fill="none" xmlns="http://www.w3.org/2000/svg">
<path fill-rule="evenodd" clip-rule="evenodd" d="M72.9855 0.0646647C73.1855 -0.00874199 73.3988 -0.0208015 73.6046 0.0343912C75.6904 0.593787 87.7461 3.94078 94.6124 8.33322C104.867 14.8931 114.737 30.9442 116.859 34.5285C117.11 34.9522 117.017 35.4808 116.651 35.8098L99.4308 51.2668C98.9926 51.6599 98.3165 51.6153 97.9337 51.1682L92.5616 44.8869C91.9287 44.1469 90.7159 44.5942 90.7159 45.5676V98.9524C90.7159 99.5309 90.2462 100 89.6671 100H27.3331C26.754 100 26.2843 99.5309 26.2843 98.9524V45.5676C26.2843 44.5942 25.0715 44.1469 24.4386 44.8869L19.0675 51.1682C18.6847 51.6157 18.0078 51.6601 17.5695 51.2668L0.349728 35.8098C-0.0167173 35.4808 -0.110089 34.9522 0.140744 34.5285C2.26343 30.9442 12.1335 14.8931 22.3878 8.33322C29.2544 3.94058 41.3114 0.593614 43.3966 0.0343912C43.6022 -0.0206285 43.815 -0.00862654 44.0148 0.0646647L52.1427 3.04806C52.2279 3.07931 52.317 3.09924 52.4073 3.10763L58.4034 3.66525C58.4677 3.6712 58.5325 3.67119 58.5968 3.66525L64.5939 3.10763C64.684 3.09922 64.7726 3.07922 64.8575 3.04806L72.9855 0.0646647ZM71.713 35.0002C69.0345 36.7442 67.7497 36.6157 64.0597 37.1809C41.92 40.5723 43.5714 55.2679 47.0792 61.4045C51.4799 53.0716 59.2768 46.6276 62.6251 44.4475C62.5647 44.7227 62.5081 44.9655 62.4542 45.1819C62.0838 46.6681 61.0964 47.8877 60.0411 48.9865C52.6872 56.6436 49.7597 63.6938 47.0792 68.6711C44.7832 72.9345 48.036 74.0002 49.9493 74.0002C49.7581 68.3815 50.6663 67.2991 51.1446 67.4602C52.7624 67.6339 56.1211 67.7661 58.8614 67.6779C60.7271 67.6179 62.5626 67.0921 64.0978 66.0168C74.733 58.5671 73.7236 42.5425 71.713 35.0002Z" fill="#FFF9F2"/>
</svg>
