<svg width="75" height="72" viewBox="0 0 75 72" fill="none" xmlns="http://www.w3.org/2000/svg">
<path d="M52.7139 40.0265C64.7064 40.0265 74.4287 51.1323 74.4287 64.8322C74.4287 66.0354 74.352 67.2186 74.207 68.3761H61.293C61.2939 68.3328 61.2951 68.2895 61.2959 68.2462L61.3018 67.6222C61.3018 56.6798 56.3184 46.8478 48.498 40.4953C49.8619 40.1887 51.2713 40.0265 52.7139 40.0265Z" fill="#FFF9F2"/>
<path d="M46.9336 12.0167C49.6584 9.64377 53.1687 8.5046 56.6875 9.20424C63.222 10.5037 67.3076 17.6486 65.8135 25.1632C64.3191 32.678 57.8109 37.7166 51.2764 36.4171C47.5777 35.6816 44.6644 33.0733 43.1025 29.5851C45.7883 25.868 47.3437 21.2043 47.3438 16.3283C47.3437 14.8654 47.2018 13.4218 46.9336 12.0167Z" fill="#FFF9F2"/>
<path d="M28.6514 38.0664C44.4747 38.0666 57.3018 51.299 57.3018 67.6221C57.3018 69.0558 57.201 70.4655 57.0098 71.8447H0.291992C0.100716 70.4655 5.68594e-06 69.0558 0 67.6221C0 51.2989 12.8279 38.0664 28.6514 38.0664Z" fill="#FFF9F2"/>
<path d="M28.7969 0C36.8309 0 43.3437 7.31034 43.3438 16.3281C43.3438 25.346 36.8309 32.6562 28.7969 32.6562C20.7629 32.6561 14.25 25.3459 14.25 16.3281C14.2501 7.31042 20.7629 0.000133643 28.7969 0Z" fill="#FFF9F2"/>
</svg>
