<svg width="78" height="93" viewBox="0 0 78 93" fill="none" xmlns="http://www.w3.org/2000/svg">
<path d="M55.8759 30.9766L55.8756 31.0424C55.867 32.3159 55.8432 33.5385 55.8045 34.7119C56.2206 34.9017 56.6143 35.1451 56.9745 35.4513C57.7666 36.1248 58.2399 36.9668 58.4996 37.812C58.9756 39.3617 58.7748 41.0838 58.5615 42.3793C58.1183 45.0703 56.427 47.3873 54.1959 48.2414C53.3506 51.5753 52.141 54.279 50.4575 56.4165C48.4939 58.9097 46.0185 60.4645 43.1409 61.4199C41.7083 61.8955 40.2705 62.0127 38.9936 62.0127C37.7166 62.0127 36.2789 61.8955 34.8463 61.4199C31.9686 60.4645 29.4933 58.9098 27.5296 56.4165C25.8462 54.279 24.6366 51.5753 23.7912 48.2414C21.5602 47.3874 19.8689 45.0705 19.4257 42.3793C19.2124 41.0838 19.0115 39.3617 19.4876 37.812C19.7473 36.9668 20.2202 36.1248 21.0123 35.4513C21.3726 35.145 21.7665 34.9018 22.1827 34.7119C22.144 33.5385 22.1201 32.3159 22.1116 31.0424V31.0254H24.6468C24.6588 32.8222 24.701 34.5093 24.7737 36.0932C24.7896 36.4401 24.4803 36.711 24.1399 36.7678C21.5647 37.1976 21.505 39.4016 21.9266 41.9621C22.3468 44.5139 24.1281 46.0299 25.6516 46.0402C25.6619 46.0402 25.6722 46.0395 25.6824 46.0377C25.7897 46.0189 25.8975 46.0863 25.92 46.1936C27.5197 53.8066 30.6705 57.3465 35.6403 58.9965C36.5835 59.3097 37.5744 59.4302 38.5677 59.4554L38.9936 59.4608C40.0578 59.4608 41.1265 59.3672 42.1442 59.0606L42.3468 58.9965C47.3166 57.3465 50.4675 53.8066 52.0671 46.1936C52.0897 46.0864 52.1975 46.0189 52.3048 46.0377C52.3149 46.0395 52.3253 46.0402 52.3356 46.0402C53.8591 46.0299 55.64 44.5139 56.0602 41.9621C56.4818 39.4015 56.4223 37.1976 53.8469 36.7678C53.5065 36.711 53.1976 36.44 53.2134 36.0932C53.2862 34.5093 53.3283 32.8222 53.3404 31.0254L55.8731 30.9104L55.8759 30.9766ZM38.9936 25.7393C46.1984 25.7393 50.1515 26.4223 52.3922 27.2691C53.5299 27.699 54.3787 28.2274 54.967 28.8725C55.2673 29.2019 55.4934 29.5555 55.6457 29.9214C55.721 30.1022 55.7752 30.2787 55.8119 30.4472C55.8302 30.531 55.844 30.6121 55.854 30.6896C55.859 30.7284 55.8629 30.7664 55.866 30.8032C55.8676 30.8216 55.8691 30.8398 55.8703 30.8577C55.8709 30.8666 55.8712 30.8756 55.8717 30.8844C55.8719 30.8888 55.8723 30.8954 55.8724 30.8975C55.8727 30.9041 55.8613 30.911 53.3404 31.0254C53.3402 31.0223 53.2102 28.2912 38.9936 28.2912C24.6488 28.2912 24.6468 31.0254 24.6468 31.0254C22.1177 31.0253 22.1116 31.0188 22.1116 31.0122C22.1116 31.01 22.1119 31.0031 22.1119 30.9987C22.112 30.9898 22.1121 30.9809 22.1123 30.9719C22.1126 30.9538 22.1133 30.9351 22.114 30.9164C22.1156 30.879 22.1178 30.8406 22.1211 30.8011C22.1278 30.7218 22.1385 30.6386 22.1537 30.5522C22.184 30.3787 22.2323 30.1957 22.3029 30.0072C22.4461 29.625 22.6679 29.2555 22.9682 28.9121C23.5551 28.241 24.4091 27.7035 25.5423 27.2716C27.7736 26.4211 31.7327 25.7393 38.9936 25.7393Z" fill="#31A050"/>
<path d="M32.0204 56.8473C33.7459 58.4333 36.1849 59.4533 38.9335 59.4533V62.0052C35.5608 62.0052 32.51 60.7528 30.311 58.7317L30.4818 59.3048C30.4108 60.4451 30.1207 61.9322 29.3359 63.6891C28.2494 66.1215 26.8007 66.6832 26.8007 66.6832C26.8165 66.7079 29.3074 70.6096 31.5089 72.4834C33.9747 74.582 38.7524 76.4127 38.7524 76.4127H38.9335C38.9335 76.4127 43.7111 74.582 46.1769 72.4834C48.3784 70.6096 50.8693 66.7079 50.8851 66.6832C50.8851 66.6832 49.4364 66.1215 48.3499 63.6891C47.5652 61.9322 47.2747 60.4451 47.2036 59.3048L47.308 58.9535C45.1304 60.8441 42.181 62.0052 38.9335 62.0052V59.4533C41.5798 59.4533 43.9398 58.5077 45.652 57.021L52.2213 51.3174L49.7721 59.5654C49.8657 60.3625 50.1075 61.4007 50.6623 62.6428C51.0577 63.528 51.4761 63.9829 51.7071 64.189C51.8013 64.2731 51.8722 64.3219 51.9083 64.3453L54.6992 65.4272L53.0182 68.062C52.9931 68.1014 52.3308 69.138 51.3817 70.4171C50.4624 71.6559 49.147 73.2974 47.8137 74.4322C46.3179 75.7053 44.2577 76.8024 42.7203 77.5391C41.1333 78.2995 39.87 78.7843 39.8353 78.7976L39.3996 78.9646H38.2862L37.8505 78.7976C37.8158 78.7843 36.5525 78.2995 34.9655 77.5391C33.4281 76.8024 31.368 75.7053 29.8721 74.4322C28.5388 73.2974 27.2234 71.6559 26.3041 70.4171C25.355 69.138 24.6927 68.1014 24.6676 68.062L22.9866 65.4272L25.7775 64.3453C25.8136 64.3219 25.8845 64.2731 25.9787 64.189C26.2097 63.9829 26.6281 63.528 27.0235 62.6428C27.5779 61.4017 27.8194 60.364 27.913 59.5669L25.247 50.6213L32.0204 56.8473Z" fill="#31A050"/>
<path d="M51.9352 64.2481C63.538 67.4476 76.6057 74.5206 77.9051 89.3138C77.9287 89.5815 77.9579 89.9506 77.9918 90.3584C78.106 91.7308 77.0126 93 75.6444 93H2.35593C0.987763 92.9999 -0.105889 91.7308 0.00818163 90.3584C0.0420752 89.9506 0.0713221 89.5815 0.094834 89.3138C1.38721 74.6015 14.3195 67.5251 25.8745 64.3008L24.8856 66.3874L31.2236 74.0431L39.0102 78.0532L46.4348 74.0431L52.5917 67.1165L51.9352 64.2481Z" fill="#31A050"/>
<path d="M38.9335 18.2659C46.9882 18.2659 51.7019 20.4455 53.7779 21.7277C54.6415 22.2612 55.1235 23.1942 55.2574 24.2052L56.5536 33.9913C56.7182 35.234 56.3498 36.4088 55.639 37.3022C55.7281 37.0971 55.7745 36.8882 55.7745 36.676C55.7745 35.8009 54.9925 34.9796 53.6223 34.2676C54.0755 33.777 54.3201 33.2554 54.3201 32.7143C54.3199 29.8399 47.4286 27.5097 38.9278 27.5097C30.4271 27.5098 23.5357 29.8399 23.5356 32.7143C23.5356 33.2568 23.7811 33.7798 24.2366 34.2715C23.1841 34.8196 22.4808 35.4325 22.2135 36.0846C21.8166 35.3315 21.6335 34.452 21.7396 33.5342L22.8621 23.8154C22.951 23.046 23.2449 22.3113 23.8546 21.8388C25.4842 20.576 29.7239 18.2659 38.9335 18.2659Z" fill="#31A050"/>
<path d="M20.1005 23.8154L4.70823 16.9899C4.40642 16.6861 4.05632 15.8598 5.0704 14.9849L37.4848 0.402581C37.9677 0.098784 39.2232 -0.326532 40.3821 0.402581L72.2532 14.9849C72.6758 15.2886 73.376 16.1514 72.7965 17.1722L57.5853 24.2052V22.0937C55.392 19.9064 48.603 15.6046 38.9936 15.8962C34.5068 15.9868 24.4466 17.3021 20.1005 21.8388V23.8154Z" fill="#31A050"/>
<path d="M69.1748 25.5833C70.0406 26.0877 70.6235 27.0295 70.6235 28.1089C70.6235 28.9011 70.3091 29.619 69.7998 30.1446L71.6552 39.7929C71.8715 40.9176 71.0154 41.962 69.8772 41.962H65.575C64.4369 41.962 63.5808 40.9176 63.797 39.7929L65.6521 30.1446C65.1429 29.619 64.8287 28.901 64.8287 28.1089C64.8287 27.0295 65.4116 26.0877 66.2774 25.5833V17.1722H69.1748V25.5833Z" fill="#31A050"/>
</svg>
