<svg width="76" height="93" viewBox="0 0 76 93" fill="none" xmlns="http://www.w3.org/2000/svg">
<path fill-rule="evenodd" clip-rule="evenodd" d="M38.0097 0L38.0253 0.00488281L38.0273 0.00878906L38.0292 0.0117188L38.0497 0.0195312L74.7206 13.2305C74.7817 13.2523 74.8258 13.3068 74.8349 13.3711V13.373C78.6255 40.7954 72.7039 59.9591 63.7441 72.7715C55.9955 83.8515 45.9802 90.1717 38.0331 92.9775C38.0296 92.9789 38.0273 92.9825 38.0273 92.9863C38.027 92.9925 38.0204 92.9963 38.0146 92.9941C38.0117 92.9931 38.0087 92.9923 38.0058 92.9912C38.0024 92.99 37.9985 92.9901 37.995 92.9912C37.992 92.9923 37.9883 92.993 37.9853 92.9941C37.9794 92.9963 37.9729 92.9925 37.9726 92.9863C37.9726 92.9826 37.9702 92.979 37.9667 92.9775C30.0196 90.1717 20.0043 83.8514 12.2558 72.7715C3.29596 59.9591 -2.62563 40.7954 1.16496 13.373V13.3711C1.174 13.3068 1.21813 13.2523 1.27922 13.2305L37.9501 0.0195312L37.9706 0.0117188L37.9726 0.00878906L37.9745 0.00488281L37.9902 0H38.0097ZM62.163 30.209C60.7885 28.85 58.5729 28.8628 57.2138 30.2373L33.748 53.9697L24.2665 44.6836C22.8855 43.3315 20.6697 43.3546 19.3173 44.7354C17.965 46.1164 17.9882 48.3331 19.3691 49.6855L31.3388 61.4072C32.7151 62.7551 34.9218 62.737 36.2763 61.3672L62.1913 35.1582C63.5504 33.7837 63.5375 31.5681 62.163 30.209Z" fill="#31A050"/>
</svg>
