<svg width="76" height="93" viewBox="0 0 76 93" fill="none" xmlns="http://www.w3.org/2000/svg">
<path d="M38.0097 0.000976562L38.0254 0.00585938C38.0266 0.00638416 38.0273 0.00839052 38.0273 0.00976562C38.0275 0.0109698 38.0282 0.0122188 38.0293 0.0126953L38.0498 0.0205078L74.7207 13.2314C74.7818 13.2533 74.8259 13.3078 74.8349 13.3721V13.374C78.6255 40.7963 72.7039 59.9601 63.7441 72.7725C55.9956 83.8525 45.9803 90.1727 38.0332 92.9785C38.0297 92.9799 38.0273 92.9835 38.0273 92.9873C38.0271 92.9935 38.0205 92.9973 38.0146 92.9951C38.0117 92.994 38.0087 92.9933 38.0058 92.9922C38.0024 92.9909 37.9985 92.991 37.9951 92.9922C37.992 92.9933 37.9884 92.994 37.9853 92.9951C37.9795 92.9973 37.9729 92.9935 37.9726 92.9873C37.9726 92.9835 37.9702 92.9799 37.9668 92.9785C30.0197 90.1727 20.0043 83.8524 12.2558 72.7725C3.29603 59.9601 -2.62557 40.7963 1.16502 13.374V13.3721C1.17406 13.3078 1.21819 13.2533 1.27928 13.2314L37.9502 0.0205078L37.9707 0.0126953C37.9718 0.0121949 37.9725 0.0109342 37.9726 0.00976562C37.9726 0.00834864 37.9733 0.0063554 37.9746 0.00585938L37.9902 0.000976562H38.0097ZM62.1631 30.21C60.7885 28.8509 58.5729 28.8638 57.2139 30.2383L33.748 53.9707L24.2666 44.6846C22.8856 43.3323 20.6698 43.3555 19.3174 44.7363C17.9649 46.1174 17.9881 48.334 19.3691 49.6865L31.3389 61.4082C32.7152 62.7559 34.9219 62.738 36.2764 61.3682L62.1914 35.1592C63.5504 33.7847 63.5374 31.569 62.1631 30.21Z" fill="#FFF9F2"/>
</svg>
