<svg width="46" height="28" viewBox="0 0 46 28" fill="none" xmlns="http://www.w3.org/2000/svg">
<g id="Re">
<path id="Vector" d="M45.8707 19.1013H31.6474C31.9634 21.7416 33.449 23.1432 35.946 23.1432C37.2103 23.1432 38.3165 22.7194 39.1383 21.9371C39.6124 21.4808 39.8337 21.1222 40.0866 20.2747L45.5863 21.8719C44.8593 23.5669 44.3852 24.3167 43.5002 25.2293C41.6985 27.0547 39.1699 28 36.0408 28C32.9433 28 30.5095 27.0873 28.7079 25.2293C26.843 23.2736 25.8316 20.5029 25.8316 17.2759C25.8316 10.8219 29.8457 6.5518 35.8828 6.5518C40.8135 6.5518 44.2587 9.32247 45.365 14.1793C45.6179 15.2224 45.7443 16.5914 45.8391 18.4494C45.8391 18.5797 45.8391 18.7753 45.8707 19.1013ZM31.7422 14.603H39.8653C39.4228 12.5169 38.0637 11.4086 35.8828 11.4086C33.6386 11.4086 32.2795 12.4517 31.7422 14.603Z" fill="#008A73"/>
<path id="Vector_2" d="M23.3579 27.2177H15.9618C15.7721 26.1746 15.3929 24.8382 14.413 22.1327C13.4016 19.2969 13.0223 18.5472 12.2321 17.83C11.5683 17.2107 10.7782 16.9499 9.76672 16.9499H6.54275V22.2957C6.54275 24.5122 6.60597 25.7183 6.79561 27.2177H0C0.189645 25.7183 0.25286 24.7404 0.25286 22.3283V4.79162C0.25286 2.77066 0.189645 1.56461 0 0C1.39073 0.0651913 2.56021 0.0977869 4.70952 0.0977869H12.9275C18.0479 0.0977869 21.019 2.83586 21.019 7.52969C21.019 9.84401 20.3868 11.6694 19.1541 12.8754C18.364 13.6251 17.7002 13.9837 16.1514 14.5052C17.7634 15.0268 18.4904 15.7765 19.5018 18.0908C19.9759 19.1339 20.4184 20.2421 21.8408 23.7625C22.1885 24.6752 22.5678 25.4901 23.3579 27.2177ZM6.54275 11.376H11.4735C13.3384 11.376 14.4762 10.2026 14.4762 8.34459C14.4762 6.51921 13.4648 5.57392 11.5051 5.57392H6.54275V11.376Z" fill="#008A73"/>
</g>
</svg>
